<svg xmlns="http://www.w3.org/2000/svg" xmlns:xlink="http://www.w3.org/1999/xlink" viewBox="0 0 838.67 720.82"><defs><style>.cls-1{fill:url(#linear-gradient);}.cls-2{fill:url(#linear-gradient-2);}</style><linearGradient id="linear-gradient" x1="-973.53" y1="1587.65" x2="-477.95" y2="1587.65" gradientTransform="matrix(-0.32, 0.95, 0.95, 0.32, -1170.42, 674.83)" gradientUnits="userSpaceOnUse"><stop offset="0.4" stop-color="#005547"/><stop offset="1" stop-color="#7ec916"/></linearGradient><linearGradient id="linear-gradient-2" x1="-2863.44" y1="-1108.59" x2="-2008.27" y2="-1108.59" gradientTransform="matrix(-0.81, 0.59, 0.59, 0.81, -905.93, 2608.57)" gradientUnits="userSpaceOnUse"><stop offset="0.36" stop-color="#005547"/><stop offset="1" stop-color="#7ec916"/></linearGradient></defs><g id="Layer_2" data-name="Layer 2"><g id="Layer_10" data-name="Layer 10"><path class="cls-1" d="M617.79,477.31l-.42-.08a9,9,0,0,0-.46,4.16c-.22,1.16-.45,2.31-.66,3.47q-.66,3.61-1.31,7.23c-.2,1.09-.39,2.18-.59,3.27-.56,3.05-1.11,6.11-1.68,9.16-.26,1.42-.58,2.83-.84,4.24-.58,3.09-1.1,6.19-1.72,9.26-.39,2-1,3.88-1.41,5.82-.29,1.28-.51,2.57-.75,3.86-.38,2-.7,4-1.12,6s-1,3.89-1.4,5.83c-.61,2.7-1.21,5.4-1.77,8.11-.45,2.15-.82,4.33-1.27,6.48a19.1,19.1,0,0,1-.74,2.21l-.23-.05c0-.46,0-.91,0-1.36l-.2,0-.79,1.58-.44-.11c1.69-20.59,3.24-41.19,5.5-61.75a.87.87,0,0,0-.41.45c-.18.92-.28,1.85-.48,2.76-.7,3.15-1.41,6.31-2.17,9.46-1,3.93-1.92,7.87-3,11.78-1,3.58-2,7.14-3.07,10.71-.06.2-.1.41-.16.62-1.24,4.57-2.46,9.15-3.73,13.71-.8,2.88-1.65,5.74-2.52,8.6-.63,2.09-1.27,4.18-2,6.22a17.71,17.71,0,0,1-1.48,2.6l-.42-.1c.68-6.51,1.6-13,2.21-19.53-.55,1.81-.92,3.65-1.29,5.49s-.7,3.77-1.11,5.63c-.71,3.25-1.49,6.48-2.2,9.72a29.88,29.88,0,0,0-.47,3.15c-.16,1.72-.23,3.45-.4,5.18-.27,2.7-.52,5.4-.89,8.09a7.88,7.88,0,0,1-1.64,4.54,8.54,8.54,0,0,1-.23-1.25c0-2.18.09-4.37.08-6.56,0-.56-.38-1.13-.37-1.7,0-3.06.1-6.13.17-9.19,0-1.8.1-3.61.15-5.41.07-2.51.15-5,.21-7.54,0-1.81.06-3.62.09-5.43s.07-3.48.11-5.22l-.37,0c-.19,1.18-.42,2.36-.58,3.54-.39,3-.73,6-1.13,8.93-.18,1.3-.49,2.58-.7,3.87-.16,1-.26,2-.4,3-.19,1.42-.39,2.84-.61,4.26-.36,2.31-.76,4.61-1.12,6.93s-.61,4.53-1,6.78c-.12.66-.09,1.63-1.15,1.78-.11,0-.24.25-.25.4-.2,1.55-.44,3.09-.56,4.64-.14,1.83,0,3.73-2,5.1-.2-13.8-.39-27.43-.59-41.06h-.37c0,.6,0,1.2-.07,1.8-.11,2.11-.22,4.21-.32,6.32-.13,2.61-.24,5.21-.37,7.82s-.3,5.46-.45,8.19-.28,5.31-.44,8a55.64,55.64,0,0,0-.36,6.17,16.6,16.6,0,0,1-1.34,6.77,2.11,2.11,0,0,1-.28.45l-.25-.32q-1.17-16.59-2.31-33.18a10.7,10.7,0,0,0-.78,3q-.4,3.15-.74,6.3c-.25,2.34-.49,4.69-.69,7s-.32,4.7-.52,7-.53,4.62-.7,6.93c-.19,2.5-.1,5-1.19,7.39-.08.19-.32.3-.49.45-.12-.19-.33-.37-.36-.57-.05-.37,0-.76,0-1.13-.31-4.28-.67-8.56-1-12.85-.33-5-.6-10-.9-15-.16-2.64-.38-5.29-.49-7.93-.18-4.08-.3-8.16-.43-12.24-.08-2.35-.13-4.7-.2-7.05-.05-1.95-.12-3.9-.19-5.85l-.35,0c-.07.45-.19.91-.23,1.37-.16,1.72-.27,3.45-.44,5.17-.22,2.34-.5,4.68-.71,7s-.32,4.71-.53,7.07-.5,4.79-.71,7.19-.31,4.64-.51,7c-.27,3-.63,6.05-.89,9.09-.19,2.27-.25,4.55-.44,6.81-.26,3-.62,6-.87,8.95a41.57,41.57,0,0,1-.77,7.34c-.66,2.46-.58,5.1-.93,7.65-.14,1-.29,2.12-1.54,2.59-1.44-9.28-2.86-18.47-4.29-27.65l-.32,0c-.06,1,0,2.1-.2,3.13-.41,2.92-.89,5.84-1.33,8.75a12,12,0,0,0-.33,2.76,3.29,3.29,0,0,1-1.59,3.35c-.06-2.33-.11-4.51-.17-6.69h-.44c-.14,4.5-.33,9-.41,13.49s0,9.06-.07,13.58l-.3,0c-.08-.4-.19-.79-.26-1.19-.63-3.51-1.27-7-1.85-10.51-.91-5.45-1.82-10.89-2.62-16.35-.68-4.67-1.26-9.35-1.8-14-.62-5.26-1.23-10.52-1.7-15.8-.59-6.58-1.07-13.18-1.49-19.78-.26-4-.36-8-.47-11.92-.1-3.67-.2-7.33-.17-11,0-2.57.28-5.13.42-7.7.08-1.27.14-2.55.21-4-1.42,1.7-2.69,3.16-3.88,4.69-.47.6-1.11,1.36-1.07,2,.1,2,.52,4,.78,6,.48,3.69,0,7.41.77,11.12a194.28,194.28,0,0,1,3.13,25c.13,2.07.45,4.13.56,6.2.18,3.62.27,7.24.37,10.86.1,3.36.22,6.72.24,10.09,0,3.83-.09,7.66-.1,11.49,0,2.73.1,5.46.06,8.19-.08,4.91-.21,9.81-.34,14.72-.09,3.24-.21,6.48-.33,9.72,0,.87-.13,1.74-.2,2.6h-.38c-.27-1.59-.54-3.18-.82-4.78h-.31c-.32,3.11.43,6.41-1.26,9.28l-.4,0q-3.16-19.14-6.34-38.28a6.58,6.58,0,0,0-.69,2.62c0,2.53,0,5.07.24,7.58.73,7.48,1.47,14.95,2.42,22.4.75,5.86,1.81,11.67,2.73,17.51.19,1.22.35,2.45.52,3.67l-.43.08q-1.35-5.64-2.69-11.27l-.34-.06c-.41,1.69-.81,3.39-1.21,5.08l-.47,0L514,634.57l-.25.07c-.29,2.19-.59,4.38-.88,6.57l-.45,0-.8-9-.28,0c-.07,10.57,1.54,21,3.18,31.41l-.47.11c-1-3-2-5.91-3.05-8.87l-.28,0c.13,3.54.27,7.08.4,10.62l-.45.11c-2.09-5.55-3.78-11.24-5.83-16.81,1.38,7.77,3,15.47,4.12,23.25l-.42.13-3.33-7.65-.2.08c0,1.13,0,2.27,0,3.41l-.4.07c-.17-.56-.33-1.13-.5-1.69-1.13-3.78-2.27-7.56-3.38-11.34-1-3.31-1.87-6.64-2.9-9.93s-2.32-6.75-3.35-10.17c-1.49-4.92-2.87-9.88-4.27-14.82-.83-2.94-1.67-5.87-2.39-8.83q-1.5-6.24-2.82-12.51c-1-4.85-2-9.72-2.93-14.49-1.39,1.4-1.72,3.52-2.47,5.44a1,1,0,0,0,.1.6c1,2.86,2,5.7,3,8.57.55,1.64,1,3.33,1.42,5,.58,2.18,1.14,4.36,1.7,6.54,1.25,4.93,2.51,9.85,3.74,14.79.59,2.39,1,4.82,1.69,7.19,1.2,4.2,2.63,8.34,3.79,12.56s2.33,8.44,3.12,12.73c1.28,6.86,2.27,13.79,3.35,20.69a12.15,12.15,0,0,1,0,2l-.28,0-5.67-14.89-.2,0q1.81,9.55,3.65,19.11l-.37.13c-.31-.62-.65-1.23-.9-1.87-.95-2.43-2.56-4.54-3.42-7-.31-.92-.64-1.83-1-2.74-.95-2.42-1.9-4.84-2.88-7.25-.37-.9-.8-1.77-1.2-2.65a13.24,13.24,0,0,0,.29,2.71c.65,4,1.24,7.93,1.92,11.89.78,4.52,1.66,9,2.46,13.56a8.78,8.78,0,0,1,0,1.54l-.44.11-9.1-18.47c1.66,8,3.31,15.83,5,23.7l-.41.12a195,195,0,0,1-10.88-24,1.15,1.15,0,0,0-.1.69c.58,2.52,1.26,5,1.77,7.56.94,4.69,1.81,9.39,2.67,14.09.54,2.89,1,5.8,1.5,8.71,0,.25-.22.54-.41,1l-5.7-13-.19.08q1.81,8.36,3.61,16.71l-.44.13c-1.19-2.89-2.41-5.76-3.55-8.67S475,696,473.86,693l-.27.07c.45,3.82.79,7.65,1.36,11.45.53,3.45,1,10.72.42,11.46A276.44,276.44,0,0,1,463.51,672a59.17,59.17,0,0,0,.73,6.09c.55,3.48,1.24,6.94,1.63,10.44q.67,6,.9,12c.12,3.36,0,6.73-.14,10.1-.06,1.88-.24,3.77-.47,5.64-.14,1.14-.46,2.26-.7,3.38h-.38c-3.7-18.66-4.92-37.6-6.15-56.57a1.88,1.88,0,0,0-.27.89c-.1,1-.14,2.11-.29,3.15-.33,2.14-.73,4.27-1.07,6.41-.4,2.51-.75,5-1.13,7.54-.35,2.26-.71,4.52-1.06,6.78s-.68,4.71-1.1,7c-.32,1.75-.83,3.47-1.17,5.22-.6,3.08-1,6.21-1.73,9.26-.88,3.64-2,7.23-3.07,10.83a2.72,2.72,0,0,1-.41.63c0-9,1.62-17.68,2.63-26.49-2.25,7.48-4,15.12-7,22.37a37.82,37.82,0,0,1,.53-5.23c.36-2.22.76-4.43,1.18-6.64.69-3.55,1.41-7.08,2.11-10.63.05-.25.13-.49.17-.74.28-1.71.46-3.44.85-5.12,1-4,2-8,3-12,.82-3.27,1.56-6.56,2.49-9.8.84-3,1.91-5.85,2.83-8.79a8.77,8.77,0,0,0,.17-1.79,47.83,47.83,0,0,0-2.85,5.27c-1.16,2.36-2.28,4.75-3.51,7.07s-2.46,4.42-3.73,6.61c-.93,1.6-1.94,3.17-2.91,4.75s-1.88,3-2.77,4.56c-1,1.75-1.92,3.57-3,5.29-1.31,2.16-2.75,4.23-4.09,6.37-1.64,2.64-3.22,5.32-4.86,8a20.83,20.83,0,0,1-1.28,1.69,1.26,1.26,0,0,1,0-1c1.22-2.6,2.45-5.2,3.67-7.81.78-1.69,1.53-3.39,2.3-5.09.15-.35.27-.72.45-1.06.81-1.53,1.67-3,2.46-4.57s1.46-3.06,2.22-4.58c.46-.91,1-1.79,1.47-2.67.7-1.25,1.43-2.48,2.12-3.74s1.22-2.41,1.9-3.58c1-1.75,2.07-3.48,3.15-5.18,1.31-2.07,2.68-4.1,4-6.15.49-.76.93-1.55,1.39-2.32-5.58,6.24-10.85,12.68-16.49,18.79s-11.72,11.95-17.59,17.9l-.38-.33c6.82-9.76,14-19.23,21.55-28.48-7.86,7.54-16.16,14.54-24.48,21.52l-.36-.34q10.39-12.27,20.77-24.55c-7.62,6.19-15.35,12.17-23.16,18.07a28.14,28.14,0,0,1,2.6-3.22l4.44-4.85c2.3-2.53,4.55-5.09,6.9-7.57s5-5.18,7.55-7.71,5.37-5.32,8.22-7.8c3-2.63,6.16-5.11,9.34-7.54a40.57,40.57,0,0,1,5.85-3.87c3.7-1.94,3.75-1.85,5.08-5.79.26-.77.54-1.54.78-2.31a10.82,10.82,0,0,0,.22-1.13,4.21,4.21,0,0,0-.81.46c-1.09,1.12-2.11,2.3-3.25,3.37a166.38,166.38,0,0,1-17.74,14.71c-4.25,3-8.63,5.91-13,8.78-2.53,1.66-5.15,3.19-7.76,4.71-3.2,1.85-6.43,3.64-9.65,5.47-.52.29-1,.6-1.54.91l-3.15,1.94-.2-.27a2.72,2.72,0,0,1,.33-.48c2.35-2.17,4.68-4.37,7.08-6.48q5.68-5,11.46-9.86c2.39-2,4.81-4,7.32-5.87,3-2.26,6.11-4.45,9.26-6.53,2.9-1.92,5.85-3.81,8.91-5.46,4-2.13,8.07-4,12.13-6a2.32,2.32,0,0,0,1.46-1.91,20.75,20.75,0,0,1,.76-3.6c.7-2.15,1.53-4.25,2.3-6.38a8,8,0,0,0,.19-1L448,628.1a122.42,122.42,0,0,1,16.67-5.3,2.9,2.9,0,0,1-.9,1.35c-2.17,1.62-4.33,3.25-6.58,4.76-3.8,2.56-7.6,5.14-11.52,7.52-3.63,2.21-7.38,4.26-11.16,6.21s-7.57,3.66-11.4,5.4q-8.91,4.05-17.85,8c-1.05.46-2.18.74-3.28,1.11l-.18-.35c7.22-5.65,14.62-11,22.28-16.11l-19.78,9.62-.27-.44c4.64-3.37,9.21-6.82,13.92-10.09s9.6-6.38,14.41-9.56c-10.89,4.3-21.63,9-32.69,12.9a30.22,30.22,0,0,1,3.58-2.54c2.65-1.68,5.29-3.38,8-5,3.52-2.15,7.07-4.24,10.62-6.33,1.29-.76,2.63-1.43,3.94-2.15l-.14-.26-26.7,10.7-.15-.25a2.4,2.4,0,0,1,.37-.45l6-3.7,7.63-4.68c2.76-1.68,5.5-3.41,8.29-5.05,2.24-1.31,4.54-2.52,6.8-3.8a4.85,4.85,0,0,0,.79-.72l-.36-.56a9.59,9.59,0,0,1-1.56,1.1c-2,.87-4,1.69-6,2.49-3.51,1.4-7,2.76-10.54,4.17a58.59,58.59,0,0,1-9.47,3.28l-1.1.24c.06-.42.17-.6.34-.7,2.74-1.64,5.48-3.28,8.25-4.87,3-1.72,6-3.37,9-5.08,1.88-1.08,3.69-2.31,5.63-3.29,6.34-3.18,12.72-6.28,19.09-9.41.62-.3,1.23-.6,1.87-.85,3.41-1.33,6.81-2.68,10.24-4,3.18-1.2,6.35-2.43,9.58-3.47,3.51-1.12,7.08-2.05,10.64-3a2.77,2.77,0,0,1,.9.05c0,.13,0,.25,0,.38l-20.3,11.46c2.14-.62,4.19-1.39,6.28-2.05,3.31-1,6.64-2,10-3,.76-.24,1.84-.51,2.11-1.07,1.25-2.66,2.26-5.43,3.38-8.16,1-2.44,2-4.87,3.07-7.3.07-.16.18-.3.25-.45q1.32-2.68,2.61-5.38s-.08-.13-.21-.35l-28.1,13.09.1.19,23.35-5.15.09.38a370.82,370.82,0,0,1-83.41,29.72,155.54,155.54,0,0,1,14.57-7.1c-.05-.1-.09-.21-.14-.32l-8.5,2.63-1.51-1.26c.95-.39,1.73-.68,2.48-1,3.07-1.5,6.11-3,9.19-4.52q7.11-3.37,14.26-6.66c6.1-2.78,12.19-5.56,18.34-8.21,3-1.29,6.11-2.32,9.2-3.4s5.95-2,8.95-3c2.58-.8,5.2-1.49,7.8-2.22,3.38-1,6.74-2,10.15-2.79,2.65-.61,4.8-1.59,5.48-4.48a5.82,5.82,0,0,0,.08-1c-15.3,5.47-30.38,11-45.91,15.18s-31.23,7.4-47.11,10.89a12.62,12.62,0,0,1,2.25-1.86,35.07,35.07,0,0,1,3.8-1.38c1.48-.52,3-1,4.44-1.57,1.63-.61,3.25-1.26,4.89-1.85,3.12-1.11,6.27-2.18,9.39-3.29s6.27-2.34,9.43-3.41c3.56-1.22,7.17-2.32,10.76-3.47,3.23-1,6.42-2.22,9.71-3.09a195.58,195.58,0,0,1,24.34-4.87c4.61-.61,9.25-1.11,13.86-1.73a2.07,2.07,0,0,0,1.29-.85,28.65,28.65,0,0,0,1.62-3.17c.29-.64.47-1.33.83-2.39A503.77,503.77,0,0,1,439.79,581a489.39,489.39,0,0,1-49.49,8.76,7.13,7.13,0,0,1,1.83-1c1.24-.44,2.5-.82,3.74-1.26,2.2-.77,4.37-1.62,6.57-2.36,3.67-1.24,7.36-2.39,11-3.63,2.9-1,5.78-2,8.68-3,3.9-1.32,7.82-2.6,11.72-3.92,2.61-.88,5.19-1.82,7.8-2.69q4.59-1.53,9.2-3c2.91-.92,5.81-1.88,8.75-2.68,3.44-.93,6.91-1.76,10.39-2.54,4.17-.94,8.36-1.83,12.55-2.64,3.25-.63,6.52-1.1,9.77-1.68a1.36,1.36,0,0,0,.83-.6c1.17-1.91,2.3-3.84,3.41-5.79.59-1,1.12-2.1,1.76-3.29l-29.69,5.9,0,.38A216.34,216.34,0,0,1,495,554.12a18.42,18.42,0,0,1-3.19,1.2c-3.73,1.17-7.44,2.42-11.2,3.51S472.84,561,468.94,562c-5.07,1.26-10.14,2.55-15.26,3.58s-10.52,1.84-15.78,2.73c-5.44.91-10.87,1.86-16.31,2.69-6,.91-12.06,1.7-18.09,2.55l-10.14,1.43c0-.52-.05-.92-.07-1.3l48.92-12.58-.08-.29-42.75,9.5c0-.12-.08-.25-.11-.38l1.66-.68-1.75-.59a1.85,1.85,0,0,0,0-.23l9.07-3-.09-.39-19.92,2c.12-.37.28-.59.49-.64,3.49-.92,7-1.91,10.48-2.7,7.22-1.62,14.46-3.13,21.7-4.68q6.18-1.33,12.36-2.65c3.24-.69,6.51-1.27,9.74-2,2.06-.49,4.06-1.23,6.11-1.82q6.83-1.95,13.66-3.85c2.95-.81,5.9-1.64,8.89-2.27,3.45-.72,6.93-1.29,10.41-1.81q5.55-.83,11.12-1.44c3-.33,6-.49,9-.77a1.91,1.91,0,0,0,1.25-.47c1-1.52,2-3.11,3-4.7-.21-.08-.34-.17-.44-.15-2.57.73-5.13,1.51-7.72,2.2-4.71,1.26-9.42,2.57-14.18,3.67-5.93,1.36-11.89,2.58-17.86,3.77-4.37.87-8.77,1.66-13.17,2.38s-9.06,1.33-13.6,2l-22.23,3.23q-8.19,1.19-16.39,2.34a2.62,2.62,0,0,1-1-.19c-.39-.12-.76-.3-1.16-.41a5.66,5.66,0,0,0-.84-.13c0-.13,0-.27,0-.41,20.6-5,41.18-10.15,61.91-14.7-4.11.3-8.18.78-12.27,1.18s-8.27.72-12.41,1.08L422.8,544c-4.14.38-8.27.87-12.41,1.12s-8,1.26-12,1.16c0-.09,0-.19,0-.29l3.94-.7,0-.27-4.24.17c0-.17,0-.33,0-.49.51-.07,1-.13,1.53-.22,5.29-1,10.58-2.11,15.89-3.08q11.29-2.07,22.61-4c6.12-1,12.24-2.12,18.39-3,6.52-.94,13-1.8,19.6-2.47,5.89-.62,11.82-1,17.74-1.38,3.58-.23,7.16-.28,10.74-.38a25.2,25.2,0,0,1,4.43,0,2.89,2.89,0,0,0,3.36-1.46c1.84-2.83,4.05-5.42,6.08-8.12.48-.63.88-1.32,1.32-2l-.24-.24c-16.08,3.26-32.2,6.27-48.48,8.37,4.57,0,9.14-.18,13.7-.28s9.3-.13,13.94-.13,9,0,13.51.4a5.94,5.94,0,0,1-2,.58c-3.4.38-6.81.7-10.21,1.1-6.15.72-12.3,1.49-18.45,2.21-5.44.64-10.89,1.24-16.34,1.85-4.55.52-9.1,1.07-13.67,1.53-3.12.31-6.25.45-9.38.73-6.58.57-13.16,1.19-19.75,1.78-5.82.53-11.65,1.07-17.48,1.52a8.08,8.08,0,0,1-2.34-.54l0-.56,31.37-6,0-.24-24.4,3.14-.09-.46,6.42-1.8c0-.13-.05-.25-.07-.38l-7.58.63c0-.17,0-.34-.05-.5l38.71-7.77c-.27-.21-.34-.31-.4-.31-5,.39-10,.78-15,1.2-7.76.64-15.52,1.31-23.29,1.94a3.53,3.53,0,0,1-1-.21c0-.17,0-.33,0-.49,1.37-.35,2.71-.77,4.09-1,4.38-.82,8.77-1.56,13.15-2.37,5.11-.93,10.2-1.94,15.31-2.84s10-1.68,15-2.43c8.13-1.22,16.25-2.53,24.41-3.5,6.22-.74,12.5-1.08,18.76-1.46,3.83-.23,7.68-.22,11.52-.29,2.82-.05,5.64-.12,8.45,0,2,0,4,.31,6,.48l.12.41a6.23,6.23,0,0,1-1.16.69,15.35,15.35,0,0,1-2.22.56c-6.12,1.08-12.24,2.13-18.35,3.19l-2.64.46c.37.2.47.31.58.3,5.94,0,11.88,0,17.82-.09,1.11,0,2.34.54,3.33-.79,2.24-3,4.66-5.81,7-8.71.66-.82,1.28-1.67,2-2.56-.3-.12-.42-.21-.53-.2-4.38.47-8.74,1.06-13.13,1.39-5.83.44-11.67.73-17.5,1-4.87.19-9.74.26-14.6.31-4.32,0-8.64,0-13,0-4.11-.05-8.21-.19-12.32-.25-3.35-.06-6.69-.07-10-.06q-4.26,0-8.52.09c-1.9,0-3.8.22-5.71.17-2.5-.07-5-.48-7.49-.43-4.21.09-8.42.43-12.63.65-.56,0-1.12,0-1.69,0,0-.14,0-.28,0-.42l15-1.32c0-.11,0-.23,0-.35-2.88-.12-5.76-.18-8.66-.14s-5.69,0-8.54,0v-.41l5.45-.54c3.89-.4,7.77-.84,11.66-1.22,4.54-.43,9.09-.82,13.64-1.23,5.7-.5,11.39-1.05,17.09-1.46s11.41-1.16,17.08-2c3.53-.56,7.09-1,10.65-1.17,4.68-.29,9.38-.38,14.07-.45,6.28-.11,12.56-.2,18.84-.14,5,.05,9.94.32,14.9.52a6.56,6.56,0,0,1,1.5.5c-.31.31-.4.49-.54.53-7,2-14.18,2.15-21.3,3.05l17.2,2.76,9.15-10.29c-4,.18-7.89.41-11.76.52-6.45.18-12.91.37-19.36.4-4.94,0-9.89-.17-14.83-.25-4-.07-8.09-.06-12.13-.18-3.63-.1-7.26-.33-10.89-.5-3.36-.16-6.73-.29-10.1-.5-2.82-.18-5.63-.58-8.45-.66-3.83-.1-7.67-.11-11.5.07-4,.18-8,.64-12,1-.17,0-.35-.13-.73-.28,3.39-1,6.84-.6,9.93-1.88,0-.16,0-.31-.05-.47l-18.15.31c0-.13,0-.25,0-.37,12.78-1.58,25.66-2.15,38.48-3.33a92.09,92.09,0,0,0-9.23-.35c-3.08,0-6.16.2-9.24.36s-6,.39-9,.59c0-.12,0-.24,0-.36q17.69-2.32,35.49-3.64c11.82-.86,23.66-1.42,35.54-1.4a15.89,15.89,0,0,0-3-.49c-3-.25-6.07-.46-9.1-.73-2.41-.22-4.8-.53-7.19-.78-1.89-.2-3.79-.32-5.68-.55-2.73-.34-5.44-.79-8.17-1.12s-5.45-.58-8.18-.85c-2.94-.29-5.87-.75-8.8-.8-4.33-.07-8.65.16-13,.26-.31,0-.63,0-.95-.07,0-.13,0-.27,0-.4l11-.65c-5-1-10.07-1.07-15-1.95a8,8,0,0,1,2.16-.17c2.38.06,4.75.19,7.13.19,3.59,0,7.17-.15,10.76-.13,4.93,0,9.87.17,14.8.21,3.89,0,7.78,0,11.67,0,5.15,0,10.31,0,15.46,0,2.71,0,5.43-.14,8.15-.1,3.59.06,7.18.2,10.77.37,2.87.14,5.75.31,8.6.61s5.62.76,8.43,1.19c2.6.39,5.23.71,7.79,1.29,2.95.66,5.84,1.57,8.76,2.39.94.26,1.87.59,2.83.82.34.08.86.12,1.07-.08,1.17-1.07,2.25-2.22,3.58-3.55l-5.54-.43c-3-.21-6-.38-9-.64-2.36-.21-4.71-.52-7.06-.78-2.11-.24-4.22-.47-6.32-.72-1.77-.21-3.54-.45-5.31-.67-2.18-.28-4.37-.55-6.55-.84s-4.21-.59-6.33-.83c-2.4-.27-4.8-.46-7.21-.7-2.22-.23-4.43-.51-6.66-.69-2.06-.16-4.13-.29-6.19-.3-3,0-6.09.06-9.12.17-4.71.18-9.41.43-14.11.66-1.18.05-2.35.15-3.53.22l0-.53,17.51-1.67c0-.12,0-.22,0-.34a298.64,298.64,0,0,0-33.32-.77c9.63-1,19.28-1.49,28.95-2-5-1.06-10.08-2-15.16-2.73s-10.32-1.19-15.5-1.57-10.13-.46-15.2-.68c0-.2,0-.41,0-.62l20.26.44a4.69,4.69,0,0,0-.78-.43q-3-.71-6-1.37c-2.41-.54-4.82-1.05-7.23-1.57-.87-.18-1.75-.34-2.61-.55-1.2-.3-2.38-.63-3.56-.95,0-.14.07-.27.11-.41l5.71.77,4.27.58,5.77.79c2,.28,4,.59,6,.86s4.19.51,6.29.77c1.85.23,3.7.49,5.55.71,2.06.25,4.12.47,6.18.71,1.82.22,3.62.47,5.44.67s3.94.39,5.91.61c1.63.18,3.27.45,4.91.59,2.46.23,4.94.34,7.4.57,1.85.18,3.69.47,5.53.7l8.94,1.13c1,.13,2,.37,3,.4,2,.06,4,0,6,0,3.05,0,6.1.06,9.15.2,2.7.12,5.4.39,8.1.6,2.1.16,4.21.29,6.31.48,2.6.24,5.21.47,7.8.79,2.06.25,4.11.6,6.15,1s4.19.69,6.24,1.23,3.28.09,4.35-1.92c-.06-.05-.12-.15-.19-.15-3.24-.25-6.48-.47-9.71-.75-5.22-.44-10.44-.86-15.64-1.42-3.21-.35-6.38-.92-9.57-1.41-5.08-.79-10.17-1.53-15.23-2.42-3.88-.69-7.74-1.52-11.58-2.4s-7.85-1.93-11.78-2.9c-.2-.05-.41-.08-.62-.12-2.05-.39-4.11-.73-6.14-1.2-2.27-.52-4.51-1.16-6.76-1.75l-.25,0L471,453.12c-.17,0-.33-.08-.5-.1-2.25-.28-4.51-.56-6.76-.82a42.57,42.57,0,0,0-5-.53c-3.59,0-7.17.16-10.75.24a2.56,2.56,0,0,1-.74-.24l0-.48,13.43-.4c-4.73-1.48-9.71-1.81-14.48-3.15a6.4,6.4,0,0,1,2,0l7.55.82c1.72.19,3.44.42,5.17.6,1.88.19,3.77.34,5.66.54s3.51.38,5.26.57c1.92.21,3.85.39,5.76.6s3.52.44,5.28.64c1.2.14,2.42.21,3.63.35,1.75.21,3.5.48,5.26.66,2.62.27,5.25.45,7.87.75s5.34.76,8,1.12c3.18.43,6.36.82,9.54,1.23,1,.13,2,.26,3,.41,2.42.36,4.86.67,7.27,1.11,2,.37,3.9.9,5.85,1.34,3.91.87,7.85,1.6,11.71,2.64,3.42.92,6.77,2.11,10.11,3.32s6.92,2.7,10.39,4a1.51,1.51,0,0,0,1.18,0c1.27-1,2.46-2,3.84-3.19-1.49-.33-2.7-.65-3.92-.86-3.37-.56-6.75-1-10.1-1.64-4.44-.86-8.85-1.86-13.27-2.82-1.63-.35-3.24-.77-4.86-1.12-2.33-.51-4.67-.93-7-1.48-2.74-.64-5.45-1.38-8.18-2.07-3.42-.87-6.85-1.76-10.28-2.62-3.75-.95-7.48-2-11.26-2.79-2.8-.59-5.66-.88-8.5-1.29-.92-.13-1.85-.2-2.77-.31-2-.24-4-.46-6-.73s-3.92-.6-5.88-.86c-2.21-.3-4.43-.55-6.64-.82-1.8-.23-3.6-.5-5.41-.71-2.09-.25-4.18-.45-6.27-.69-.62-.07-1.24-.18-1.86-.28,0-.15,0-.3.05-.45l25.92,1c-11.57-5-23.67-6.68-36.15-6.1,8.53-1.5,17-.45,25.4.82-7-3-14.56-4.33-21.77-6.77a2.61,2.61,0,0,1,1.22.08c1.79.39,3.56.81,5.35,1.18,2.07.43,4.16.79,6.23,1.24s4,1,6,1.45c1.28.3,2.57.56,3.86.8,2.06.4,4.15.72,6.2,1.17s4,1,6.07,1.49c1.4.33,2.82.6,4.24.86,1.84.34,3.69.62,5.52,1,2.66.52,5.32,1.09,8,1.62,1,.21,2.08.39,3.12.54,1.55.23,3.1.4,4.64.64s3.25.57,4.86.88a40.23,40.23,0,0,1,5.73,1.23c2.46.88,5,.84,7.52,1.18,1.85.24,3.7.42,5.54.66s3.94.56,5.91.84l7,1c1.3.19,2.6.42,3.9.62,1.46.23,2.93.43,4.39.69s2.91.58,4.37.85c2.92.53,5.87.93,8.76,1.6,3.11.73,6.16,1.72,9.24,2.57a1.52,1.52,0,0,0,1.09,0c1.07-.77,2.07-1.64,3.25-2.6a5.56,5.56,0,0,0-.86-.29l-4-.3c-.84-.07-1.67-.18-2.51-.28-2.05-.23-4.11-.41-6.15-.7-2.22-.33-4.41-.77-6.62-1.14-1-.18-2.09-.32-3.13-.47-1.43-.2-2.86-.34-4.27-.59s-3-.63-4.49-.93c-1.16-.22-2.34-.39-3.51-.59-1.71-.3-3.43-.57-5.14-.9s-3.23-.71-4.85-1.05c-1.29-.27-2.58-.52-3.88-.77-2-.4-4.09-.75-6.11-1.19s-4.31-1.05-6.46-1.58L512,441c-.46-.11-.91-.26-1.36-.38-3.58-.91-7.18-1.79-10.75-2.74-3.09-.83-6.15-1.78-9.25-2.59a30.46,30.46,0,0,0-4.14-.76q-4-.51-8.05-.87c-3.08-.27-6.16-.46-9.23-.68-1.41-.1-2.81-.18-4.21-.26,0-.14,0-.28,0-.41,5-.06,10.08.2,15.16.56a3.68,3.68,0,0,0-1.32-.61c-1.94-.5-3.88-1-5.81-1.46L466.09,429c-.28-.07-.6,0-.89-.05-1.19-.28-2.37-.6-3.56-.91l.09-.36a2.81,2.81,0,0,1,.58,0c1.21.2,2.41.47,3.62.62,2.16.28,4.34.45,6.5.77s4.31.75,6.47,1.12c1,.16,2,.28,3,.4,2.13.26,4.27.46,6.39.79,2.3.35,4.57.84,6.85,1.23,1,.18,2.09.28,3.13.41,1.26.15,2.51.27,3.76.46,2.05.3,4.08.67,6.12.94s4.33.51,6.49.78c1.05.13,2.08.34,3.13.45,1.92.2,3.86.27,5.76.56,2.51.39,5,1,7.49,1.43,3.33.66,6.68,1.25,10,2s6.39,1.45,9.58,2.23c4,1,8.11,2,12.14,3.13,4.32,1.21,8.65,2.42,12.88,3.91,3,1.06,5.91,2.58,8.87,3.88.25.11.67.21.84.09,1.38-1,2.73-2.09,4.32-3.32-1.6-.34-2.88-.6-4.15-.89-5.82-1.32-11.65-2.62-17.46-4-2.57-.61-5.11-1.35-7.66-2-4.86-1.33-9.73-2.59-14.56-4-4.34-1.29-8.63-2.77-12.94-4.16-6.14-2-12.33-3.84-18.41-6a80.73,80.73,0,0,0-13.24-3.34c-1.79-.31-3.58-.63-5.39-.81-2.26-.21-4.55-.25-6.82-.41-.83-.06-1.66-.23-2.49-.36,0-.13,0-.26,0-.39l10.19.21,0-.33-17.62-3.59.06-.35,9.49.91a30.47,30.47,0,0,0-5.06-2c-2-.59-4.11-1.13-6.19-1.57-1.56-.32-3.17-.42-4.75-.68-1.38-.23-2.73-.59-4.11-.79-1.13-.17-2.28-.15-3.41-.27s-2.25-.31-3.37-.47l.06-.4a86.26,86.26,0,0,1,19.31,2.5c-3.09-1.24-6.24-2.29-9.37-3.38s-6.49-1.21-9.38-2.94c1.68.23,3.33.56,5,.91.67.14,1.31.37,2,.5,1.87.37,3.75.66,5.61,1.06s3.86,1,5.81,1.39c3.15.64,6.33,1.13,9.48,1.79,4.32.9,8.62,1.88,12.92,2.85,3.23.73,6.45,1.49,9.67,2.26s6.71,1.58,10.05,2.42c4.25,1.06,8.48,2.2,12.73,3.25,1.4.35,2.84.55,4.26.8,1.67.3,3.35.52,5,.86,1.83.38,3.64.87,5.46,1.27,1.41.32,2.82.59,4.24.86,2,.4,4.1.73,6.13,1.2,2.44.57,4.86,1.26,7.3,1.87l5.46,1.35c3.43.86,6.91,1.56,10.29,2.61,4.89,1.53,9.71,3.3,14.57,5,.27.09.65.21.84.09,1-.66,2-1.39,3.08-2.21-.66-.22-1.05-.38-1.45-.49-3.71-1-7.46-1.89-11.12-3.07-9.39-3.06-18.74-6.26-28.1-9.42-2.6-.87-5.16-1.84-7.76-2.7s-5-1.65-7.57-2.36c-3.54-1-7.11-1.85-10.66-2.78-3.1-.81-6.19-1.64-9.28-2.46-1.9-.5-3.8-1-5.71-1.48-2.76-.67-5.55-1.29-8.32-2-2.28-.54-4.55-1.12-6.83-1.67-1.4-.34-2.8-.71-4.22-1-2.68-.47-5.37-.87-8.06-1.31a7,7,0,0,1-1.06-.36l.11-.31h1.12v-.21L486.14,407c.15-.26.26-.33.37-.32,2.15.2,4.3.38,6.44.63,2.58.3,5.14.67,7.72,1,2.76.33,5.53.57,8.29.93,2.05.26,4.08.66,6.13,1,2.56.39,5.11.76,7.68,1.11a5,5,0,0,0,1.2-.14,46.93,46.93,0,0,0-5.79-2.85c-1.9-.77-3.87-1.37-5.81-2.06-5-1.79-10.1-3.49-15.07-5.45a37.15,37.15,0,0,0-8.23-2.11c-.23,0-.61-.19-.63-.32-.12-1.31-1.23-1.08-2-1.31a15.5,15.5,0,0,0-2.26-.41c-1.33-.18-2.67-.36-4-.51-.87-.1-1.74-.15-2.61-.23,0-.12-.05-.24-.06-.36a2.25,2.25,0,0,1,.79-.27c2,.12,4.06.13,6,.44s3.8.95,5.71,1.37a17,17,0,0,0,2.37.16l.09-.28L480,391.44c0-.09.08-.19.11-.28.41.11.82.21,1.22.34,2,.7,4,1.45,6.06,2.09,5.94,1.89,11.91,3.73,17.86,5.58a6.87,6.87,0,0,0,1,.17c1.46.22,2.93.42,4.39.66s3,.52,4.51.79,3.18.51,4.76.83,3.39.77,5.1,1.12c1.24.27,2.5.49,3.75.72,1.75.31,3.52.57,5.27.93s3.72.91,5.59,1.3c3.45.73,6.93,1.36,10.37,2.11,3.2.69,6.39,1.47,9.56,2.25,2.36.58,4.72,1.18,7.06,1.86,4.92,1.44,9.83,2.89,14.72,4.45,6.19,2,12.38,3.93,18.51,6.1,4.82,1.71,9.54,3.72,14.3,5.61,1,.39,1.91.91,2.88,1.34.21.09.54.2.7.1,1.17-.72,2.3-1.49,3.73-2.42-.71-.29-1.07-.47-1.46-.58-2.15-.62-4.34-1.14-6.47-1.87q-7-2.38-14-4.95c-5.14-1.88-10.24-3.83-15.36-5.76-2.52-.95-5.05-1.88-7.55-2.88-2.81-1.13-5.54-2.5-8.4-3.44-4.06-1.34-8.22-2.36-12.32-3.55-4.34-1.27-8.67-2.61-13-3.87-2.54-.74-5.11-1.38-7.65-2.1-2.87-.82-5.72-1.73-8.6-2.52-2.54-.7-5.09-1.4-7.67-1.89a48.6,48.6,0,0,0-6-.59c-2.81-.18-5.62-.26-8.44-.36-.58,0-1.16,0-1.74,0,0-.14,0-.29,0-.44,3.79-1,7.62-.53,11.49-.17-3.81-1.74-8.15-1.89-11.84-4a3.58,3.58,0,0,1,1.23.13c1.53.34,3.06.71,4.61,1,1.83.35,3.67.63,5.51.95,1.42.25,2.83.55,4.25.8,1.67.29,3.34.53,5,.82,1.83.32,3.66.67,5.49,1,1.57.3,3.15.59,4.72.91,1.82.38,3.63.79,5.45,1.16.86.17,1.73.28,2.59.41a28.86,28.86,0,0,0-3.94-2.19c-2-.9-4-1.73-6-2.59l-.34-.17c-1.8-.93-3.58-1.91-5.42-2.77-2-.95-4.06-1.78-6.09-2.66-3.08-1.35-6.11-2.86-9.26-4-3-1.1-6.12-1.87-9.2-2.73-1.3-.36-2.65-.59-4-.89l-3.54-.83c2.68-.58,5.27.22,7.88.66l.09-.37L494,374.3c0-.14.08-.27.13-.41,1.75.43,3.53.8,5.27,1.29,2.51.7,5,1.47,7.49,2.22,6,1.8,12,3.41,17.89,5.43,11.49,3.93,23.13,7.42,34.36,12.09,4.14,1.72,8.37,3.25,12.55,4.86l.59.26c2.79,1.27,5.51,2.72,8.39,3.76s6.07,1.71,9.11,2.55c4.62,1.26,9.27,2.39,13.83,3.81,5.63,1.76,11.2,3.72,16.76,5.7,2.66.94,5.23,2.09,7.83,3.18.35.14.61.49,1,.63.9.35,2,1.12,2.7.86a31.34,31.34,0,0,0,4.81-2.78L633,416.51c-8.24-2.86-16.51-5.65-24.71-8.62-6.27-2.26-12.46-4.73-18.67-7.14-2.7-1.05-5.37-2.18-8.05-3.28-.12-.05-.22-.13-.34-.18-2.22-1.07-4.43-2.15-6.66-3.19-1.89-.88-3.8-1.7-5.7-2.55-1.48-.67-3-1.32-4.42-2-2.18-1-4.34-2.12-6.52-3.15-1.69-.8-3.42-1.51-5.1-2.33-1.83-.89-3.6-1.91-5.44-2.78-2-.94-4.11-1.77-6.17-2.66-.31-.13-.6-.32-.91-.47-2.11-1-4.19-2.11-6.36-3s-4.28-1.47-6.43-2.2a9.58,9.58,0,0,1-.92-.42l.09-.23,1.3.12.08-.26-1.34-.53c-.68-.26-1.38-.46-2-.77-1.83-.89-3.57-2-5.46-2.7-3.48-1.32-7-2.42-10.56-3.62a11.75,11.75,0,0,1-1.15-.5l.12-.3,3,.78c0-.09,0-.17,0-.25l-4.88-2.42.13-.26c.32.07.65.12,1,.21,4.1,1.23,8.2,2.42,12.28,3.72,9.94,3.17,19.88,6.35,29.79,9.61,5.24,1.72,10.47,3.51,15.63,5.44,6,2.22,11.85,4.64,17.77,7,.95.38,1.88.81,2.84,1.15a17.7,17.7,0,0,0,1.91.46l.06-.32c-2.64-1.08-5.27-2.16-7.91-3.22-2.19-.87-4.4-1.68-6.57-2.56-4.11-1.67-8.21-3.38-12.31-5.07l-8.78-3.58c-4.87-1.95-9.72-3.95-14.62-5.83a29,29,0,0,0-4.46-1.09c-2-.4-4-.71-6-1.1a13.1,13.1,0,0,1-1.8-.6c0-.15.07-.3.11-.46l6.72,1a15,15,0,0,0-2.78-1.55c-1.74-.7-3.54-1.29-5.29-2a15.66,15.66,0,0,1-1.67-.88l.17-.42a5.4,5.4,0,0,1,.9.11q5.64,1.63,11.26,3.32c3.84,1.14,7.69,2.26,11.52,3.46,8,2.5,16,5,23.94,7.59s15.64,5.31,23.45,8c.47.16,1,.22,1.44.34l.06-.27c-1.19-.47-2.4-.89-3.56-1.42-2.19-1-4.34-2.11-6.54-3.11s-4.52-2-6.77-2.94c-1.4-.62-2.79-1.26-4.17-1.94-1.9-.92-3.76-1.93-5.67-2.83s-3.82-1.64-5.71-2.51c-2.43-1.12-4.83-2.3-7.24-3.46-.3-.15-.58-.35-.89-.5-1.62-.83-3.24-1.68-4.88-2.47-1.48-.72-3-1.38-4.49-2.09-1.14-.55-2.26-1.14-3.39-1.71-2-1-3.87-2-5.88-2.91-1.77-.75-3.64-1.25-5.46-1.88-.65-.23-1.27-.51-1.91-.77l.09-.23,2.36.55.1-.3-6.24-3.23.2-.43c.42.15.86.27,1.27.44,1.61.68,3.18,1.44,4.82,2,8.3,3.05,16.59,6.12,24.92,9.07,12.86,4.56,25.76,9,38.61,13.57,6.88,2.45,13.68,5.1,20.52,7.66l.35.15c3.08,1.53,6.16,3.08,9.25,4.59,2.55,1.25,5.13,2.45,7.69,3.69,1,.5,2,1,3,1.58,1.89,1.1,3.74,2.28,5.63,3.38,2.33,1.35,4.75,2.57,7,4,2.82,1.82,5.53,3.83,8.27,5.77a1.67,1.67,0,0,0,2,0c1.06-.63,2.14-1.23,3.2-1.87.2-.11.32-.33.53-.56a4.78,4.78,0,0,0-.71-.47c-1.58-.62-3.18-1.17-4.73-1.83-2.23-.95-4.43-2-6.66-2.94-4.14-1.81-8.3-3.59-12.44-5.41q-2.16-.94-4.28-2c-2-1-3.93-2-5.92-3-1.72-.83-3.51-1.53-5.23-2.36-3-1.44-5.89-3-8.85-4.41s-5.85-2.74-8.77-4.12c-1.27-.6-2.52-1.22-3.76-1.88-2.32-1.23-4.61-2.51-6.93-3.74-2.06-1.09-4.14-2.12-6.2-3.2-.9-.47-1.77-1-2.65-1.5-1.11-.66-2.21-1.37-3.33-2s-2.2-1.1-3.25-1.72c-2.47-1.46-4.89-3-7.37-4.44s-5.12-2.82-7.69-4.22L560,352.62c-1.4-.78-2.79-1.58-4.2-2.34-1.23-.66-2.49-1.27-3.74-1.9-1.78-.9-3.53-1.87-5.34-2.7-2.28-1.05-4.63-2-6.93-3-3.32-1.45-6.63-2.93-9.94-4.41a8.57,8.57,0,0,1-1-.66l.15-.35a9.56,9.56,0,0,1,1.43.31c3.94,1.41,7.89,2.8,11.8,4.3s8.08,3.21,12.11,4.84a9.84,9.84,0,0,1,1.32.77,3.83,3.83,0,0,0,2.67.73l-10.22-5.88.15-.34c.37.12.74.24,1.1.38l14.51,5.49,4.19,1.6c5.33,2.08,10.63,4.22,16,6.21,4.89,1.81,9.85,3.42,14.76,5.19,3.58,1.29,7.11,2.72,10.66,4.07a9.63,9.63,0,0,0,1.18.28c-2.54-1.52-5.13-2.77-7.7-4.06-1.17-.58-2.3-1.23-3.44-1.87s-2.24-1.35-3.39-2-2.59-1.25-3.87-1.89c-1-.49-1.94-1-2.9-1.55-1.36-.75-2.69-1.55-4.05-2.3-1.11-.6-2.25-1.13-3.36-1.74-2.16-1.21-4.32-2.44-6.47-3.67-1.17-.67-2.32-1.38-3.5-2a29.73,29.73,0,0,0-3.58-1.87c-2.52-1-5.08-1.78-7.65-2.61a22.74,22.74,0,0,0-2.24-.42c-.43-.1-.84-.28-1.26-.42l.09-.35h3.2c-3-1.48-5.87-2.75-8.83-3.9-1.79-.7-3.66-1.2-5.49-1.81a7.23,7.23,0,0,1-.89-.42l.14-.39,8.65,2.22.06-.17-5.95-3.33c.06-.11.1-.22.16-.34a18.12,18.12,0,0,1,1.75.61c1.92.92,3.78,2,5.73,2.8,3.06,1.31,6.16,2.51,9.27,3.71q7.23,2.79,14.49,5.49,6.72,2.54,13.45,5,13,4.77,26,9.51c.84.3,1.69.59,2.52.93l13.88,5.66,8.54,3.48c.16.06.3.16.45.23,2.39,1.11,4.77,2.25,7.17,3.34,2,.89,4,1.72,6,2.6,1.13.51,2.22,1.06,3.33,1.6,1.33.66,2.67,1.31,4,2,1.58.81,3.13,1.68,4.71,2.49,1.36.69,2.78,1.26,4.12,2,2.07,1.14,4.12,2.32,6.13,3.56,2.61,1.61,5.18,3.29,7.78,4.93.19.12.49.31.64.24,1-.4,1.89-.85,2.83-1.29,0-.13,0-.26-.05-.39-.77-.32-1.55-.62-2.31-1-1.3-.61-2.61-1.22-3.86-1.92-1.87-1.07-3.69-2.22-5.53-3.33-1.56-.93-3.15-1.82-4.69-2.78s-3-1.95-4.47-2.87c-2.15-1.32-4.33-2.61-6.51-3.89-2-1.17-4-2.34-6.08-3.43-2.41-1.27-4.88-2.41-7.3-3.67s-4.61-2.52-6.94-3.75c-1.94-1-3.92-2-5.88-3-.94-.49-1.85-1-2.78-1.54-1.9-1-3.83-2-5.7-3.1-2.37-1.39-4.67-2.88-7-4.27-1.78-1-3.63-2-5.41-3-2.59-1.5-5.14-3.06-7.72-4.59-.94-.56-1.9-1.1-2.85-1.65-2.72-1.55-5.4-3.16-8.15-4.62-2.47-1.31-5-2.44-7.54-3.7s-4.72-2.51-7.11-3.69a17.77,17.77,0,0,0-3-1.13c-2.41-.7-4.85-1.32-7.27-2a3.41,3.41,0,0,1-.8-.42,2.47,2.47,0,0,0,.1-.29l5.35,1.06.1-.25c-2.14-.94-4.35-1.76-6-3.45a19.18,19.18,0,0,1,2.4,1.06c2.22,1,4.47,1.9,6.72,2.8,3.56,1.42,7.14,2.81,10.72,4.22l.83.34q6.56,2.72,13.12,5.45c.93.39,1.82.92,2.74,1.35a4.49,4.49,0,0,0,.84.21l.09-.26c-.81-.53-1.63-1-2.42-1.57q-4.08-2.84-8.14-5.71c-2.16-1.54-4.31-3.1-6.47-4.63-1.54-1.09-3.11-2.14-4.64-3.24s-3-2.37-4.65-3.45a42.45,42.45,0,0,0-4.69-2.77c-2-1-4.14-1.78-6.19-2.72-1.2-.55-2.35-1.22-3.52-1.84,2.74.18,5,1.65,7.46,2.72l.15-.34-8.31-6.12.17-.3a7.86,7.86,0,0,1,1.39.48c2.29,1.28,4.55,2.6,6.83,3.89.92.52,1.86,1,2.78,1.53,1.9,1.09,3.77,2.24,5.68,3.31a15.22,15.22,0,0,0,2.54,1.13c1.08.38,2.23.56,3.31.95,6,2.19,12,4.42,18.07,6.62a6.84,6.84,0,0,0,1,.21c-1.68-1.37-3.41-2.54-5.14-3.69L599,318.72c-2-1.31-4-2.65-6-3.94s-4-2.4-5.88-3.68a30.21,30.21,0,0,0-7.24-3.87c-1.21-.4-2.43-.8-3.64-1.23a4.47,4.47,0,0,1-.77-.42c0-.09.08-.17.11-.26l4.67.6c0-.14.07-.29.11-.44-1.76-.9-3.69-1.54-5.26-3.19a2.61,2.61,0,0,1,.63,0l7,3.35c.16.08.3.18.45.25,1.86.93,3.7,1.88,5.58,2.76s3.66,1.6,5.48,2.43c1.19.55,2.35,1.17,3.51,1.76,1.77.91,3.53,1.85,5.31,2.72s3.32,1.52,5,2.29c1.23.58,2.46,1.15,3.67,1.78,1.58.82,3.1,1.73,4.69,2.52,2.46,1.24,5,2.41,7.44,3.63,1.22.61,2.42,1.25,3.62,1.9s2.58,1.44,3.89,2.13,2.58,1.27,3.85,1.95c1.45.77,2.87,1.59,4.31,2.38,1.78,1,3.59,1.91,5.35,2.92s3.53,2.18,5.31,3.23c2.33,1.37,4.76,2.59,7,4.07a48.07,48.07,0,0,0,9,4.49c.39.16.77.36,1.16.54,2.07,1,4.13,2,6.21,3,1.69.8,3.41,1.53,5.11,2.33,1.19.56,2.36,1.16,3.52,1.77,1.58.82,3.14,1.69,4.72,2.5,1.4.72,2.82,1.37,4.22,2.07,1,.48,1.88,1,2.8,1.51,1.26.7,2.5,1.44,3.76,2.14,1.89,1,3.82,2,5.68,3.09,2.37,1.38,4.71,2.83,7,4.3,2.47,1.57,4.92,3.2,7.38,4.8.2.13.47.36.63.31,1.46-.51,2.9-1.06,4.34-1.6l-.06-.37c-1.39-.78-2.82-1.52-4.18-2.37-4.11-2.56-8.24-5.11-12.28-7.77-4.65-3.06-9.22-6.22-13.8-9.36-2.94-2-5.88-4-8.75-6.14-4.54-3.33-9-6.74-13.52-10.12-2.89-2.16-5.73-4.38-8.65-6.49-2.12-1.53-4.33-2.94-6.52-4.37-1.41-.91-2.86-1.76-4.29-2.66s-3-1.92-4.49-2.85-3.05-1.8-4.57-2.72c-2.3-1.41-4.58-2.85-6.9-4.24-2-1.22-4.07-2.39-6.11-3.57a31.31,31.31,0,0,0-2.78-1.52c-1.39-.64-2.84-1.16-4.26-1.75-.25-.1-.63-.31-.65-.5-.11-.95-.78-1.24-1.53-1.53a1.2,1.2,0,0,1-.68-.51c-.62-1.55-2.16-2-3.36-2.87-1.55-1.08-3.2-2-4.8-3-2-1.26-4.08-2.52-6.1-3.8-.65-.41-1.24-.89-1.86-1.33a6.66,6.66,0,0,1,2.58.62c2.1,1,4.16,2.08,6.26,3.08,1.84.87,3.72,1.64,5.57,2.49,1.15.54,2.28,1.12,3.41,1.7,1.84.93,3.69,1.87,5.52,2.82.63.32,1.23.71,1.87,1a13.1,13.1,0,0,0,1.35.54l.07-.22-28.72-23.1,1.56.05-2.3-1.72.27-.41c8,4.83,16,9.57,23.84,14.5s15.77,10,23.5,15.16,15.28,10.65,22.9,16l.22-.26a2.69,2.69,0,0,0-.37-.45q-1.75-1.35-3.53-2.68L657,317.66c-2.08-1.58-4.13-3.19-6.21-4.76-2.92-2.2-5.87-4.37-8.79-6.56-.78-.58-1.51-1.23-2.28-1.81-2.37-1.76-4.76-3.49-7.12-5.26s-4.43-3.38-6.64-5.06c-2.76-2.11-5.51-4.21-8.28-6.3-1.44-1.09-2.92-2.13-4.37-3.22-.6-.44-1.16-.93-1.73-1.4l.18-.28,2.26.9.1-.25-.46-.54a10.9,10.9,0,0,1,2.17,1c1,.53,1.93,1,2.87,1.59,1.86,1.1,3.69,2.23,5.55,3.31s3.49,2,5.21,3,3.38,2.1,5.1,3.09,3.56,1.93,5.34,2.91c.88.49,1.75,1,2.62,1.53,1.7,1,3.38,2.08,5.09,3.08s3.47,1.93,5.18,2.93,3.45,2.13,5.2,3.17,3.31,1.88,4.95,2.85c2.47,1.46,4.91,3,7.37,4.44.91.54,1.87,1,2.76,1.56,2.64,1.68,5.26,3.42,7.9,5.1,2.87,1.85,5.78,3.63,8.64,5.5q4.66,3,9.26,6.23c3.61,2.5,7.23,5,10.75,7.65a22.21,22.21,0,0,0,6.35,3.39c3,1,5.79,2.3,8.67,3.48a6.19,6.19,0,0,1,.57.3l6.47,3c1.46.69,3,1.3,4.36,2.1,2.5,1.42,4.92,3,7.39,4.43a29.79,29.79,0,0,1,7.23,5.7c.18.19.54.43.72.37,1.52-.49,3-1.05,4.77-1.69-.47-.4-.68-.64-.94-.82-.74-.5-1.49-1-2.23-1.46-1.93-1.28-3.84-2.6-5.8-3.84s-4.12-2.46-6.16-3.73c-1.57-1-3.09-2-4.64-3-1.72-1.13-3.48-2.21-5.15-3.42-1.86-1.35-3.62-2.84-5.45-4.24-3.55-2.69-7.14-5.32-10.68-8-2.43-1.88-4.8-3.85-7.2-5.76s-4.78-3.75-7.13-5.67c-3-2.45-5.93-5-8.92-7.44-3.8-3.15-7.6-6.29-11.45-9.37-1.86-1.5-3.81-2.9-5.76-4.29-1.27-.9-2.61-1.69-3.93-2.53-1.49-1-3-1.9-4.48-2.83s-2.94-1.81-4.4-2.72-3.12-2-4.68-3l-4.05-2.54.17-.38c3.43,1.33,6.66,3.15,10.07,4.51.06-.11.11-.22.16-.33Q651.32,282,639.16,271.87c.1-.14.19-.28.29-.41,15.54,10,31,20,46.22,30.6Q665.56,284,646.41,265a19.18,19.18,0,0,1,2.84,1.79c2.32,1.63,4.66,3.24,7,4.85l4.7,3.22c1.85,1.26,3.7,2.49,5.53,3.76,1.5,1,2.94,2.16,4.44,3.19,2.22,1.53,4.48,3,6.71,4.54,1.7,1.17,3.36,2.4,5.06,3.58,2.19,1.51,4.41,3,6.58,4.49,2.52,1.78,5,3.65,7.5,5.42s5.33,3.58,7.93,5.45q4.95,3.54,9.79,7.24c4.21,3.23,8.37,6.51,12.53,9.79,1.49,1.18,2.83,2.58,4.41,3.63,2.15,1.42,4.46,2.6,6.7,3.87.88.5,1.79,1,2.67,1.45,1.73,1,3.47,2,5.18,3s3.22,2,4.84,3S754,339,755.5,340c2.48,1.59,4.93,3.24,7.36,4.91,2.88,2,5.72,4,8.55,6.07.25.18.32.61.47.93-.36.15-.74.45-1.08.41-.59,0-1.14-.39-1.72-.48-.28-.05-.62.2-.93.31.18.27.29.64.54.79a9.05,9.05,0,0,0,1.46.63c0,.15,0,.29,0,.44-.48.19-1,.57-1.45.52-1.29-.12-2.59-.07-3.73-1.07a14.39,14.39,0,0,0-3.11-1.65c-1.77-.91-3.53-1.85-5.31-2.73-.73-.36-1.51-.62-2.48-1a4.63,4.63,0,0,0,.19.65c2.77,3.44,5.58,6.86,8.3,10.34.78,1,1.43,1.82,2.79.8a1.69,1.69,0,0,1-.64,2.05,18.89,18.89,0,0,1-2.14,1.13,1.86,1.86,0,0,0-.9,2.69,9,9,0,0,0,.75.93,4.94,4.94,0,0,1-.82.45c-1.94.64-3.89,1.25-5.83,1.88-.59.19-1,.41-1.1,1.2a21,21,0,0,1-.62,3.51c-.77,2.92-1.47,5.88-2.46,8.73-2,5.89-4.4,11.67-6.38,17.58-1.22,3.67-1.89,7.52-2.94,11.24-1.75,6.21-3.39,12.46-5.47,18.57-6.1,18-12.39,35.9-18.61,53.84-.16.48-.4.94-.6,1.41l-.21-.09.51-2.59-.12,0c-.39.88-.78,1.77-1.18,2.66l-.46-.15q4.82-23.19,9.61-46.38a5.73,5.73,0,0,0-1,1.47,23.4,23.4,0,0,0-2.8,5.56c-.77,2.49-1.62,5-2.56,7.39-2.27,5.9-4.64,11.77-6.92,17.67-1.93,5-3.75,10-5.68,15-1.16,3-2.46,5.91-3.73,8.93l-.6-.2-1.32,2.33-.47-.19c.12-.47.23-.94.35-1.41.68-2.55,1.4-5.08,2-7.65.69-2.8,1.24-5.65,1.94-8.45s1.53-5.69,2.28-8.53c.51-2,1-4,1.47-6,.6-2.57,1.12-5.16,1.77-7.72.75-3,1.61-5.93,2.42-8.89.07-.25.11-.5.17-.76.65-2.77,1.26-5.56,2-8.32.83-3.18,1.75-6.33,2.63-9.5,1.34-4.82,2.45-9.71,4-14.43,3-8.87,6.26-17.64,9.46-26.44.73-2,1.66-3.92,2.51-5.87A3.88,3.88,0,0,1,734,382c.9-1.77,1.81-3.55,2.7-5.33a2.39,2.39,0,0,0,.1-.71,5.4,5.4,0,0,0-.81.15c-2.71,1-5.41,2.08-8.13,3.08a1.8,1.8,0,0,0-1.21,1.5c-.24,1.25-.42,2.51-.7,3.74-.7,3.07-1.33,6.17-2.23,9.19-.62,2.12-1.72,4.09-2.44,6.19s-1.32,4.38-1.9,6.6-1.07,4.39-1.55,6.59c-.83,3.74-1.57,7.5-2.46,11.23-.92,3.89-2,7.76-3,11.62-.84,3.17-1.74,6.33-2.65,9.49s-1.83,6.13-2.78,9.19c-2.2,7.11-4.34,14.24-6.66,21.3-3.48,10.61-7.1,21.17-10.67,31.75a11.55,11.55,0,0,1-.47,1.09l-.24-.09c.05-.48.1-1,.18-1.75l-1.18,1.55a8.49,8.49,0,0,1-.08-1.45c.36-2.18.76-4.36,1.15-6.54.18-1,.35-2.08.54-3.12.28-1.62.57-3.25.86-4.88s.54-3.07.83-4.61.68-3.33,1-5c.22-1.08.45-2.16.64-3.25.31-1.75.54-3.51.89-5.25s.87-3.56,1.22-5.35c.59-3,1.08-6.1,1.68-9.13.57-2.83,1.2-5.65,1.86-8.46.56-2.36,1.25-4.69,1.82-7.05.28-1.18.42-2.4.62-3.59a16.59,16.59,0,0,0-1.85,2.81,17.13,17.13,0,0,0-1.3,2.47c-3.8,10.72-7.54,21.46-11.36,32.17-2,5.59-4.11,11.14-6.2,16.69-1.53,4.08-3,8.17-4.68,12.2-.9,2.23-1.3,4.79-3.72,6.31a5.7,5.7,0,0,1-.08-1.27c.25-1.42.51-2.84.83-4.25.56-2.4,1.18-4.79,1.76-7.19.66-2.77,1.31-5.54,2-8.32.08-.33.19-.66.26-1,.62-2.73,1.18-5.47,1.87-8.18.77-3.06,1.7-6.08,2.5-9.14.42-1.63.71-3.3,1.06-5l-.93.28-.27-.2a15.53,15.53,0,0,0,1.06-2.17q2.5-7.74,4.92-15.51c.9-2.94,1.69-5.91,2.55-8.86,1.5-5.08,2.89-10.21,4.54-15.24q4.74-14.38,9.77-28.66c1.18-3.33,2.79-6.51,4.19-9.76.25-.59.42-1.21.71-2.06-2.57,1.09-4.85,2-7.09,3.05a1.38,1.38,0,0,0-.61.95,36.9,36.9,0,0,1-.68,4.25,130.1,130.1,0,0,1-7,17.86,51.56,51.56,0,0,0-3.2,9.4c-1.05,4-1.93,8.06-3.19,12-2.66,8.26-5.47,16.48-8.31,24.68q-3.6,10.44-7.4,20.78c-2.18,5.93-4.5,11.81-6.76,17.71q-1.82,4.73-3.65,9.43-2.42,6.21-4.82,12.41a24.76,24.76,0,0,1-1.14,3.13,33.9,33.9,0,0,1-2.31,3.22,10.64,10.64,0,0,1,.27-3q2-8.13,4-16.26c.61-2.44,1.28-4.86,2-7.29.86-3.13,1.75-6.25,2.61-9.37.59-2.14,1.14-4.29,1.71-6.43.07-.27.1-.55.15-.82l-.31-.09-9,26.48-.25-.08c.12-.67.24-1.33.35-2l-.27-.08-1,1.89-.47-.15,5.58-28.69-.38-.11c-.22.48-.47.95-.66,1.45-2.08,5.51-4.14,11-6.23,16.53q-2.33,6.15-4.68,12.3c-1,2.48-1.88,5-2.86,7.42q-2.21,5.46-4.46,10.9a11,11,0,0,1-1.53,3.17,10.36,10.36,0,0,0-2.4,3.79c-.83,2.61-1.73,5.19-2.61,7.79-.13.38-.32.73-.48,1.1l-.43-.11q3.39-20,6.76-39.9a28.82,28.82,0,0,0-2.17,4c-.34.74-.53,1.54-.88,2.27-1,2-1.92,4.06-3,6a34.83,34.83,0,0,1-2.43,3.51c-.09.12-.43.05-.72.08.58-2,1.17-3.87,1.67-5.77.79-3.05,1.47-6.13,2.31-9.17,1.12-4.08,2.35-8.12,3.52-12.18.11-.37.17-.75.26-1.13.79-3.09,1.5-6.21,2.38-9.28,1.34-4.72,2.79-9.41,4.19-14.11,0-.16.09-.33.13-.49,1.18-4.32,2.38-8.64,3.52-13,.54-2,1-4.06,1.43-6.09,0,0-.11-.11-.29-.29-.3.86-.6,1.65-.83,2.46-1.24,4.13-2.45,8.26-3.68,12.39-.28.94-.63,1.86-.92,2.8-1.18,3.84-2.23,7.72-3.54,11.51-2.23,6.41-4.69,12.73-6.92,19.14-3.74,10.78-7.46,21.57-12,32.06-1.65,3.83-3.3,7.66-4.91,11.51-1.26,3-2.51,6.07-3.65,9.15-1,2.77-1.89,5.6-2.84,8.39-.15.45-.38.88-.57,1.31l-.33-.11q2.82-13.25,5.66-26.49a19.05,19.05,0,0,0-1.49,3.68c-1.52,5.16-3,10.34-4.54,15.49a2.94,2.94,0,0,1-2,2.35c.09-.44.16-.75.22-1.06.26-1.36.55-2.73.78-4.1s.37-3,.64-4.5c.45-2.5,1-5,1.46-7.48.21-1.11.4-2.23.56-3.36.22-1.53.34-3.08.6-4.6.33-2,.79-4,1.13-6,.3-1.8.49-3.62.78-5.41s.68-3.81,1-5.71c.21-1.21.38-2.42.61-3.63.27-1.41.6-2.81.86-4.22.35-1.91.66-3.82,1-5.74.24-1.37.52-2.74.71-4.12.28-2,.47-4,.76-6s.66-4.09,1-6.14c0-.18-.22-.4-.34-.6C617.2,480.08,617.51,478.71,617.79,477.31Zm54.61-79.64c-4.22-1.61-8.47-3.18-12.68-4.84s-8.6-3.52-12.91-5.28c-1-.42-2.07-.8-3.11-1.19L632.32,382c-.69-.26-1.4-.48-2.11-.72l-.13.3c1.54.9,3.08,1.79,4.62,2.71s3.32,2,5,3L644,390c1.4.87,2.82,1.7,4.18,2.62,2.3,1.54,4.6,3.12,6.85,4.74,2.41,1.72,4.75,3.52,7.14,5.26a1.33,1.33,0,0,0,1.08.27c3.21-1.56,6.39-3.18,9.69-4.85C672.66,397.86,672.55,397.72,672.4,397.67ZM610.06,331.3c2.67,1.46,5.38,2.85,8,4.35s5.22,3.11,7.86,4.62,5.13,2.78,7.65,4.25c3,1.79,6.06,3.68,9.09,5.5,1.56.94,3.17,1.79,4.71,2.75s2.79,1.89,4.22,2.79a24,24,0,0,0,2.68,1.48c1.8.85,3.65,1.64,5.45,2.5,1.56.76,3.1,1.58,4.64,2.38,1.28.66,2.56,1.34,3.83,2,1.64.88,3.28,1.77,4.93,2.63,1.23.65,2.51,1.23,3.74,1.9s2.33,1.36,3.5,2c.88.51,1.75,1,2.64,1.52,2.51,1.4,5.05,2.74,7.54,4.18,1.56.9,3,2,4.55,2.94q2.76,1.77,5.54,3.52c.07.05.18.05.23.1,1.68,2,3.24.66,5-.14a3.52,3.52,0,0,0-.55-.43c-3.66-1.73-7.36-3.39-11-5.19q-6.35-3.13-12.6-6.48c-3.47-1.87-6.85-3.89-10.27-5.83-3.26-1.85-6.55-3.65-9.78-5.55-2.26-1.34-4.42-2.83-6.65-4.19s-4.48-2.61-6.7-3.94c-1.34-.8-2.66-1.64-4-2.5-2.47-1.63-4.83-3.44-7.4-4.88s-5.44-2.58-8.15-3.88c-2-.93-3.87-1.94-5.82-2.88-1.65-.79-3.34-1.51-5-2.32-1.82-.89-3.61-1.86-5.43-2.76s-3.38-1.63-5.08-2.44l-.17.35C608.25,330.24,609.14,330.8,610.06,331.3ZM523.43,490.87c1.09.11,2.19.08,3.27.25,3.09.47,6.17,1,9.25,1.53,1.17.21,2.34.43,3.48.7a6.4,6.4,0,0,1,1.29.59l10.68-11.12-27,1.22,22.58,2v.55l-26.37,3.54v.41C521.52,490.62,522.47,490.78,523.43,490.87Zm95.32-58.16c.28,1.91.68,3.77.81,5.65.17,2.61.17,5.23.16,7.84s-.06,5.06-.2,7.58c-.11,2.27-.36,4.53-.55,6.79-.13,1.56-.25,3.11-.41,4.67-.18,1.88-.39,3.76-.59,5.64a39.92,39.92,0,0,0-.32,5.39,4.64,4.64,0,0,0,.42-1.08c.26-2,.45-3.93.69-5.9.14-1.14.3-2.27.49-3.4.62-3.86,1.21-7.72,1.92-11.56.54-3,1.22-5.9,1.87-8.85.88-3.94,1.73-7.89,2.68-11.82.38-1.61,1-3.18,1.46-4.77.12-.39.23-.79.34-1.18l-.31-.24Zm57.36-31.47c-2.23,1.08-4.44,2.19-6.68,3.25a1.68,1.68,0,0,0-1,1.71q-.2,3.65-.64,7.27c-.31,2.52-.75,5-1.15,7.53-.09.55-.3,1.07-.41,1.61-.21,1-.38,2-.57,2.95l.29.09c.11-.1.27-.18.32-.3,1-2.39,2-4.81,3-7.18s2.22-4.79,3.33-7.18l1.78-3.81,2.76-6-.25-.22A6.83,6.83,0,0,0,676.11,401.24ZM554.25,456.86c3.21,1.28,6.45,2.48,9.63,3.84,1.71.72,3.31,1.71,5,2.55a8.31,8.31,0,0,0,2.22.95,2.26,2.26,0,0,0,1.43-.66c2-1.67,4-3.39,6-5.1a3.11,3.11,0,0,0,.32-.49c-1.28.05-2.43.16-3.58.13-2.14-.06-4.29-.19-6.43-.31-1.68-.1-3.37-.19-5-.36-1.89-.19-3.77-.49-5.66-.71-1.4-.16-2.81-.26-4.21-.38,0,.09,0,.18-.07.27A1.54,1.54,0,0,0,554.25,456.86Zm139.7-87-.08.08c1.17,1,2.34,1.94,3.52,2.9a82.59,82.59,0,0,1,9.23,8.51,1.42,1.42,0,0,0,1.26.36c2.51-.94,5-2,7.48-3,.1,0,.14-.19.21-.28Zm-24,17.81c2.81,2.08,5.46,4.38,8.21,6.53.4.31,1.14.64,1.51.48,2.14-.94,4.23-2,6.34-3.05.09-.05.13-.19.17-.25l-23.22-8.71-.12.28C665.2,384.49,667.65,386,669.93,387.65Zm-97.54,79c-1.14,1-2.29,1.9-3.34,2.95a1.7,1.7,0,0,0-.41,1.41,76.13,76.13,0,0,1,2.88,16,3.67,3.67,0,0,0,.17.39c.19-.3.4-.49.43-.72.4-3,.68-6.12,1.17-9.16.44-2.75,1.11-5.47,1.67-8.2l1.1-5.31-.15-.21C574.74,464.72,573.55,465.66,572.39,466.63Zm71.72-34.86c1.48-3.76,2.84-7.57,4.43-11.28a56.33,56.33,0,0,1,3.11-5.49c.26-.45.5-.92.76-1.38l-.23-.22c-1.45.72-2.92,1.41-4.36,2.17-1.12.6-2.17,1.34-3.31,1.9a2,2,0,0,0-1.18,2c-.1,3.24-.18,6.47-.37,9.7-.09,1.64-.39,3.26-.58,4.89,0,.11.09.22.31.68C643.24,433.63,643.74,432.73,644.11,431.77ZM588,454.2c-.65.46-1.33.89-2,1.39-1.28,1-2.56,2-3.79,3a1.69,1.69,0,0,0-.62,1.2c1,5.63,2,11.24,3,16.85l.13.09C585.8,469.28,586.9,461.81,588,454.2Zm24.7-33.82c2.7,1.71,5.42,3.4,8.07,5.18,1.14.77,1.74,1,2.87.26,2.08-1.3,4.14-2.64,6.42-4.09l-20.93-3.82a1.85,1.85,0,0,0-.14.14C610.24,418.83,611.48,419.59,612.71,420.38ZM552,485.22a1.57,1.57,0,0,0-.1,1.37c2.51,6.27,2.41,12.93,3,19.49,0,0,.06.05.31.26.56-9,1.07-17.79,2.69-26.83C555.78,481.53,553.83,483.34,552,485.22Zm-5.2,5.3c-2.31,2-4.16,4.37-6.23,6.31.82,2.88,1.77,5.62,2.37,8.43s.83,5.63,1.23,8.45h.08Zm-64.12,46.93v.14c1.27-.1,2.54-.22,3.81-.3,3-.18,6-.38,9-.5,3.34-.14,6.69-.19,10-.29a2.84,2.84,0,0,0,2.61-1.7,30.78,30.78,0,0,1,2.41-3.49ZM624.13,396c.15.45.16.56.2.58,2.22,1,4.47,1.88,6.68,2.89,2,.9,3.87,1.91,5.8,2.87l.34.19c2,.87,4.07,1.71,6.07,2.63,2.24,1,4.45,2.09,6.65,3.19,1,.52,2,.86,3.1.06a19.94,19.94,0,0,1,2.55-1.35c0-.11,0-.23,0-.35C644.71,404.34,634.67,399.84,624.13,396Zm-31.52,36.51-.06.26c.8.5,1.62,1,2.41,1.5,2.54,1.65,5.07,3.33,7.64,4.94a1.2,1.2,0,0,0,1.07-.07c2.19-1.46,4.34-3,6.73-4.64ZM492.19,560.59c-.07-.09-.15-.17-.23-.26l-19.54,7.42s0,.08,0,.12L489,566.52ZM718.07,383c-2.27.95-4.29,1.78-6.28,2.67-.22.1-.37.58-.38.9-.08,2.36-.06,4.73-.17,7.09-.06,1.22-.33,2.44-.49,3.66-.07.5-.1,1-.15,1.51l.31.05A59.82,59.82,0,0,0,718.07,383ZM577.84,441.69c.69.45,1.21.85,1.78,1.14,1.47.75,3,1.39,4.45,2.19,1.65.92,3.28,1.89,4.84,3,1.31.89,1.53,1,2.78.06,1.61-1.21,3.2-2.45,4.81-3.68ZM623.28,403c2.11.9,4.24,1.75,6.33,2.71,1.84.85,3.63,1.83,5.45,2.74.3.15.62.28.93.42,2.57,1.2,5.15,2.39,7.71,3.62a2.08,2.08,0,0,0,2.28,0c1-.69,2.11-1.26,3.19-1.89l-26.34-8-.06.1A4.27,4.27,0,0,0,623.28,403Zm101.46-28.09,5.67-2.25c0-.14.07-.29.11-.43q-4.38-2.13-8.69-4.42c-2.89-1.51-5.67-3.24-8.5-4.87l-.18.28C717.12,366.88,721.25,370.43,724.74,374.87ZM607.24,440.7l-.23-.17c-1,.64-2,1.26-2.91,1.93-1.22.85-2.38,1.79-3.64,2.58-.64.41-.65.82-.55,1.48.47,3.28.89,6.58,1.33,9.94Zm-19.58-15.84-.09.23c.43.14.86.31,1.3.44,3.76,1.14,7.54,2.2,11.27,3.43,3.89,1.29,7.72,2.75,11.58,4.11a1.08,1.08,0,0,0,.83,0c1-.65,2.05-1.36,3.07-2,0-.1,0-.2,0-.29Zm-38.93,50.56c2.4.73,4.83,1.4,7.25,2.06a1.38,1.38,0,0,0,1.07-.08c1.63-1.45,3.21-2.95,4.93-4.56l-18.31.71c0,.05,0,.09-.07.13C545.31,474.27,547,474.89,548.73,475.42ZM746.26,366.68c-1.29-1.25-12.8-6.39-14.53-6.48,1.46,1.48,2.9,2.82,4.19,4.29s2.41,3.05,3.64,4.63Zm-288,245.14c3.73-1.15,7.48-2.26,11.21-3.4.31-.09.72-.25.83-.48.87-1.89,1.66-3.8,2.48-5.71l-.23-.2-17.76,10.84c0,.08.05.15.07.23C456,612.67,457.15,612.18,458.3,611.82Zm52-77.52c-1.72,2-.6,3.76.19,5.68a26.21,26.21,0,0,1,1.26,4.91c.44,2.13.78,4.29,1.34,6.42.11-7,.22-14,.34-21.38C512.29,531.52,511.4,533,510.29,534.3Zm-25.77,15.43,0,.19L499,549c1.09-1.76,2.26-3.64,3.42-5.53l-.12-.22Zm12.35,6.68c0-.1-.23-.2-.4-.36-.52.89-1,1.72-1.49,2.56-.83,1.47-1.66,2.94-2.46,4.43a.91.91,0,0,0,.05.72c1.52,3.35,3.07,6.69,4.58,10C497.06,568,497,562.21,496.87,556.41Zm-23.95,49.88c-.51,1.1-1,2.14-1.46,3.19a7.84,7.84,0,0,0-.7,2.06,3.48,3.48,0,0,0,.23,1.92c2,4.18,4.17,8.31,6.25,12.46a5.27,5.27,0,0,1,.28.82l.11,0C476.07,620,474.52,613.21,472.92,606.29Zm15.3-35.15A34.64,34.64,0,0,0,486,576c-.25.75.28,1.79.57,2.67.87,2.61,1.79,5.2,2.7,7.8a42.48,42.48,0,0,0,2.13,5.18c-.9-6.85-1.79-13.71-2.73-20.9A2.19,2.19,0,0,0,488.22,571.14ZM625.66,409.55c0,.07,0,.13-.07.2l3.78,2.46,5.74,3.73c.61.39,1.24.74,1.88,1.09a.78.78,0,0,0,.6.09c1.59-.87,3.16-1.77,4.73-2.66,0-.13-.09-.26-.13-.39Zm65.46-15.31c-1.39.66-2.75,1.37-4.15,2a1.35,1.35,0,0,0-.86,1.54,30.29,30.29,0,0,1-1,10.16,11,11,0,0,0-.14,1.82l.47.14c2.19-5.21,4.38-10.41,6.69-15.88A5.53,5.53,0,0,0,691.12,394.24Zm-155,107.94-.35-.09c-1.2,1.35-2.4,2.69-3.57,4.05-1,1.12-.11,2.25.17,3.26.79,2.89,1.78,5.73,2.7,8.59a5.52,5.52,0,0,0,.26.55h.31ZM465.33,628.82a1.79,1.79,0,0,0,.39,1.23c1.34,1.89,2.74,3.74,4.1,5.63.56.78,1.06,1.62,1.78,2.72-1.38-5.93-2.68-11.53-4-17.39C466.76,623.78,466,626.29,465.33,628.82Zm33.37-76.6a1.19,1.19,0,0,0-.16.92c2,4,2.63,8.34,3.51,12.62.41,2,.71,4,1.07,6,0,.14.11.27.41.35-.76-7.91-1.52-15.82-2.3-24C500.25,549.71,499.46,551,498.7,552.22ZM660,409.55l-.31-.27a17.25,17.25,0,0,0-3.7,2.06,4,4,0,0,0-.9,2.79,32.67,32.67,0,0,1-1,7.89c-.37,1.79-.76,3.56-1.14,5.34l.27.12C655.49,421.51,656.89,415.21,660,409.55Zm32.41-21.62a1,1,0,0,0,.88.24c2-.81,4-1.68,6-2.53l0-.36-11.76-2.88C689.23,384.39,690.8,386.18,692.41,387.93Zm52-14.84a24.59,24.59,0,0,0-3.49,1.31,2.26,2.26,0,0,0-.79,1.59c-.18,1.62-.16,3.27-.31,4.89-.11,1.18-.36,2.34-.55,3.5l-.6,3.78.22.06ZM460.73,616.8c2.27-.82,4.54-1.64,6.8-2.48a1.38,1.38,0,0,0,.79-.58c.56-1.45,1-2.94,1.54-4.42l-.27-.21-12.35,8.77.1.18Zm44.48-74.66c-.37.5-.72.92-1,1.38-.56.88-1.12,1.77-1.62,2.69a1.25,1.25,0,0,0-.17,1c1.48,2.91,2,6.1,2.75,9.24.12.53.23,1.05.34,1.58l.23,0C505.55,552.77,505.38,547.56,505.21,542.14ZM464.74,631.2c-.67,1.85-2,3.55-.82,5.76,1.55,2.88,2.91,5.88,4.32,8.84a23,23,0,0,1,.87,2.32l.35-.11Q467.11,639.61,464.74,631.2Zm53.62-107.56-.19-.12c-1.13,1.54-2.33,3-3.37,4.65-.23.35,0,1.06.16,1.58.55,2,1.14,4,1.72,6a1.39,1.39,0,0,0,.27.41h.33ZM470,614.52l-.21-.07a39.06,39.06,0,0,1-1.29,3.73c-.73,1.61.07,2.61,1,3.79a22.82,22.82,0,0,1,1.93,3.59c.16.31.37.59.56.89l.22-.12Zm4-11.09c-.09.33.24.79.42,1.17q1.65,3.35,3.32,6.69a3,3,0,0,0,.71,1.07L475.8,599l-.27-.07C475,600.41,474.46,601.9,474,603.43Zm2.55-6.52a1.5,1.5,0,0,0,.24,1c.72,1.54,1.48,3.06,2.21,4.6.23.52.39,1.08.58,1.62l.31-.05q-.63-6-1.27-12l-.39-.15C477.68,593.57,477.09,595.23,476.57,596.91Zm82.64-118.62a1.11,1.11,0,0,0-.1.82c.51,2.29,1,4.58,1.58,6.87l.29,0,1.38-10.25-.19-.17C561.18,476.45,560.17,477.34,559.21,478.29ZM753.16,356l-.15.2,3.66,4.12.18.19c.5.6.91,1.55,1.52,1.71s1.5-.42,2.26-.67l1.07-.35Zm-297.8,288.8c1.35-.89,2.71-1.75,4.06-2.64.14-.09.32-.19.37-.33.53-1.51,1-3,1.56-4.54l-.3-.14q-3.8,4.33-7.58,8.69l.12.24C454.18,645.66,454.76,645.21,455.36,644.81Zm178.1-220.58-.35-.24c-1.09.64-2.18,1.26-3.24,1.94a.89.89,0,0,0-.29.67c.09,1.71.22,3.42.33,5.13l.38,0C631.35,429.24,632.41,426.74,633.46,424.23ZM482.62,582.54a.6.6,0,0,0,0,.49,46,46,0,0,0,2.92,4.51c-.24-3-.48-6-.75-9.31C484,579.86,483.28,581.19,482.62,582.54Zm45.5-71.64a1.25,1.25,0,0,0-.26.93,48,48,0,0,0,1.73,5.2c.42-3,.85-6,1.27-9l-.19-.12C529.82,508.92,529,509.89,528.12,510.9Zm199-145.16-.06.09,5.12,3.94c.13.1.29.18.41.29,1.41,1.28,2.51,1.28,4,0ZM615.8,434.68c-.87.59-1.76.91-2.17,1.54a4.42,4.42,0,0,0-.35,2.27c0,1.89.06,3.78.1,5.66l.27.05C614.35,441.12,615,438.05,615.8,434.68Zm53.26-42.18-.15.15c.46.4.89.82,1.38,1.18a19,19,0,0,1,3,2.23,2,2,0,0,0,2.89.32c.24-.15.5-.29.92-.52ZM489.72,568.23a.78.78,0,0,0,0,.6c.75,1.61,1.53,3.2,2.3,4.79l.34-.1-.87-8-.37.05C490.66,566.46,490.17,567.34,489.72,568.23ZM463,637.82a4.11,4.11,0,0,0-.66,4.36c.53,1.06,1.08,2.11,1.61,3.16h.17C463.72,642.82,463.35,640.31,463,637.82ZM597,447.89c-2.63.6-3.09,1.9-1.73,5.07ZM566.6,472.16c-2.58.32-3.09,2.56-1.21,5.37Zm73-51.68c-2.91.93-2.58,1-2.29,5.22ZM456.49,647.38a22.22,22.22,0,0,0-2.46,3.33l1.85-1.65a23,23,0,0,1,2.1-1.87c1.07-.74,1.16-1.84,1.44-2.89l-.25-.17C458.28,645.22,457.38,646.3,456.49,647.38ZM579.73,460.85c-1.85.8-2.16,1.3-2,3.27.09.88.2,1.76.3,2.63l.32.05C578.83,464.81,579.29,462.82,579.73,460.85Zm-42,43.85,1.05-5.33C536.52,500.64,536.41,501.19,537.77,504.7Zm11.87-16.95c-2.27,1.57-2.49,2.8-.85,4.86ZM590.3,453.9c0,.37.09.75.11,1.12a2.32,2.32,0,0,0,.19,1.15l1.69-5C590.44,451.92,590.11,452.42,590.3,453.9ZM462.19,649.09c-.25-1.93-.46-3.59-.69-5.33C460.21,645.43,460.37,647,462.19,649.09Zm-2.15.22a2.77,2.77,0,0,0-.59,2.59c.42,1.19.78,2.39,1.17,3.58l.23,0C460.59,653.51,460.33,651.51,460,649.31ZM680.21,402.4l2-3.59-.3-.22C680.46,399,680.07,399.73,680.21,402.4ZM507.79,538.32c-1.91,1.71-2.09,2.67-.51,3.57C507.45,540.68,507.61,539.57,507.79,538.32Z"/><path class="cls-2" d="M496.44,293c-.18-.17-.35-.35-.52-.53-2.16,1.25-3.42,3.38-4.77,5.43-1.45,1.41-2.91,2.82-4.35,4.25-3,3-6,6-9,8.94q-2,2-4.06,4c-3.8,3.77-7.6,7.55-11.42,11.3-1.77,1.75-3.61,3.43-5.39,5.18-3.87,3.79-7.65,7.67-11.57,11.4-2.49,2.38-5.19,4.53-7.74,6.84-1.67,1.52-3.26,3.13-4.88,4.72-2.5,2.46-4.94,5-7.51,7.37s-5.18,4.55-7.73,6.87q-5.3,4.82-10.51,9.71c-2.77,2.61-5.43,5.33-8.21,7.92a33.36,33.36,0,0,1-3.23,2.4l-.26-.3,1.39-1.88-.24-.26-2.67,1.46-.53-.6C416,359.76,438.51,332.14,462,305.27a1.42,1.42,0,0,0-1,.25c-1.15,1.12-2.22,2.33-3.4,3.42-4.12,3.77-8.23,7.55-12.42,11.24-5.24,4.63-10.49,9.24-15.84,13.73C424.42,338,419.38,342,414.4,346l-.84.71c-6.27,5.25-12.51,10.52-18.82,15.73-4,3.28-8,6.49-12.06,9.68-3,2.33-5.93,4.65-9,6.79a29.84,29.84,0,0,1-4.67,2.21l-.49-.55c7.39-8.54,15.11-16.81,22.42-25.46-2.56,2-4.91,4.26-7.25,6.5s-4.71,4.64-7.13,6.88c-4.21,3.88-8.51,7.68-12.71,11.57a46.16,46.16,0,0,0-3.78,4c-1.93,2.27-3.74,4.65-5.68,6.92-3,3.56-6.07,7.14-9.25,10.57-1.79,1.94-3.6,4-6.81,4.81a14.6,14.6,0,0,1,.91-2c2.18-3.08,4.45-6.1,6.59-9.21.56-.8.59-2,1.15-2.77,3.06-4.32,6.2-8.57,9.33-12.84,1.84-2.51,3.71-5,5.56-7.5q3.87-5.22,7.74-10.47c1.84-2.51,3.66-5.06,5.49-7.58s3.54-4.86,5.31-7.29l-.48-.42c-1.44,1.48-2.93,2.92-4.32,4.44-3.5,3.82-6.92,7.71-10.43,11.52-1.53,1.66-3.23,3.17-4.8,4.79-1.22,1.25-2.36,2.59-3.55,3.88-1.69,1.82-3.36,3.64-5.08,5.43-2.8,2.91-5.64,5.77-8.43,8.69s-5.34,5.82-8.16,8.58c-.82.82-1.73,2.22-3.39,1.38-.16-.08-.58.13-.74.32-1.82,2-3.68,3.94-5.38,6-2,2.45-3.61,5.32-7.92,5.19l39.73-58.68-.53-.37c-.62.82-1.24,1.65-1.87,2.47-2.23,2.88-4.47,5.75-6.69,8.63-2.76,3.56-5.49,7.14-8.25,10.7q-4.35,5.58-8.73,11.14t-8.49,10.84c-2.21,2.8-4.74,5.38-6.6,8.38-2.2,3.55-5.29,6-8.59,8.27a5.7,5.7,0,0,1-.84.35c0-.23,0-.47-.05-.71q14.74-24.61,29.51-49.22a18.65,18.65,0,0,0-4.07,3.49q-3.69,4-7.27,8.17c-2.67,3.07-5.32,6.16-7.92,9.29s-5.1,6.34-7.72,9.46-5.3,6-7.83,9.12c-2.74,3.35-5.11,7-9,9.28a3,3,0,0,1-1.14.15,3,3,0,0,1,.06-1.17c.29-.57.79-1,1.12-1.59,3.78-6.37,7.5-12.78,11.33-19.12,4.47-7.41,9-14.76,13.55-22.14,2.39-3.9,4.69-7.85,7.14-11.71,3.77-5.94,7.64-11.83,11.48-17.73,2.21-3.4,4.47-6.78,6.69-10.18,1.85-2.81,3.67-5.64,5.51-8.46l-.45-.41c-.56.57-1.17,1.1-1.68,1.71-1.93,2.29-3.8,4.62-5.73,6.89-2.63,3.1-5.34,6.13-7.95,9.24s-5.12,6.35-7.74,9.48-5.45,6.28-8.11,9.47-5,6.26-7.6,9.34c-3.37,4-6.86,7.95-10.23,12-2.51,3-4.85,6.18-7.36,9.2-3.31,4-6.76,7.83-10.07,11.8-2.72,3.25-5,6.8-8.33,9.63s-5.87,6.64-8.88,9.9c-1.18,1.27-2.5,2.71-4.73,2.14l21.24-43.36-.47-.29c-1.12,1.42-2.15,2.92-3.38,4.24-3.47,3.73-7,7.38-10.53,11.07a19.88,19.88,0,0,0-3.19,3.58,5.67,5.67,0,0,1-5.56,3.16l6.37-9.62-.62-.44c-4.65,6.22-9.36,12.39-13.91,18.68s-9,12.76-13.51,19.15l-.45-.26c.27-.65.5-1.31.8-1.95,2.58-5.57,5.12-11.16,7.76-16.7,4.1-8.59,8.19-17.2,12.45-25.71,3.64-7.28,7.46-14.47,11.31-21.64,4.33-8.06,8.66-16.11,13.21-24q8.52-14.85,17.43-29.47c3.56-5.87,7.35-11.59,11.12-17.33,3.47-5.28,6.95-10.57,10.62-15.72,2.58-3.61,5.47-7,8.21-10.48,1.36-1.73,2.7-3.47,4.28-5.5-3.7,1-6.94,1.82-10.13,2.8-1.26.38-2.92.84-3.52,1.81-1.84,3-3.23,6.2-4.85,9.3-3,5.69-7.27,10.52-9.9,16.49a331.75,331.75,0,0,1-20.26,38.46c-1.87,3.06-3.44,6.3-5.34,9.33-3.31,5.29-6.76,10.5-10.19,15.72-3.18,4.86-6.33,9.74-9.63,14.52-3.75,5.44-7.69,10.76-11.49,16.16-2.71,3.85-5.25,7.83-8,11.64-4.95,6.88-10,13.69-15,20.5-3.32,4.5-6.7,9-10.07,13.42-.91,1.2-1.9,2.33-2.85,3.5l-.53-.39c1.18-2.52,2.37-5,3.55-7.57l-.43-.3c-3.53,4.09-5.73,9.48-11,11.88l-.58-.37q14.41-30.21,28.84-60.43a11.6,11.6,0,0,0-3.56,3c-2.49,3.58-5,7.17-7.15,11-6.34,11.3-12.69,22.6-18.7,34.08-4.73,9-9,18.31-13.43,27.47-.94,1.92-1.93,3.8-2.9,5.7l-.68-.31,7.33-18.6-.43-.43-6.74,6-.67-.44,9.9-24-.42-.14q-3.87,4.2-7.73,8.42l-.61-.49,7.71-13.47-.42-.23c-10.54,14.89-18.55,31.23-26.53,47.59l-.77-.32,4.44-15.55-.43-.22q-5,7.69-9.92,15.41l-.76-.29c2.53-9.91,5.77-19.64,8.37-29.54-5.73,12.35-11,24.86-17.15,37l-.71-.23,2.85-14.11-.36-.09-3.37,4.83-.63-.3c.31-1,.63-1.92.94-2.88q3.21-9.71,6.43-19.4c1.88-5.63,3.9-11.23,5.7-16.9,1.86-5.87,3.39-11.85,5.3-17.7,2.76-8.44,5.7-16.81,8.61-25.19,1.72-5,3.43-10,5.34-14.86q4-10.29,8.36-20.48c3.35-7.87,6.82-15.7,10.18-23.39-3.36.61-5.92,3.28-8.87,5.25a1.67,1.67,0,0,0-.46.95c-1.41,5-2.73,10.08-4.22,15.08-.85,2.87-1.91,5.68-2.93,8.49-1.32,3.65-2.69,7.29-4.06,10.93-3.09,8.21-6.17,16.42-9.31,24.62-1.52,4-3.33,7.83-4.71,11.84-2.46,7.13-4.53,14.4-7,21.51s-5.05,14.24-8.16,21.1c-5,11-10.42,21.75-15.71,32.58a19.92,19.92,0,0,1-2,2.82l-.43-.23q3.33-13.33,6.69-26.68l-.34-.12q-6.85,15.33-13.72,30.65l-.64-.19c.18-1.18.29-2.37.57-3.53,1-4.38.86-8.95,2.1-13.3.46-1.62.9-3.24,1.29-4.87,1-4.36,2.09-8.73,3.08-13.1.38-1.64.62-3.3.93-4.95a22.37,22.37,0,0,0-2.26,4.13c-3,6.24-6.09,12.44-9,18.72-3.37,7.17-6.59,14.42-9.92,21.62a15.67,15.67,0,0,1-1.49,2.19l-.73-.28,5.36-35.12c-5.51,12.91-11,25.67-16.4,38.42l-.7-.24c1.94-15,4.36-30,8.33-44.71a1.94,1.94,0,0,0-.83.88c-1.66,4.14-3.19,8.35-5,12.44-3.29,7.56-6.71,15.07-10.13,22.57-2.1,4.63-4.28,9.22-6.49,13.8-.19.4-.84.56-1.54,1,1.66-8.42,3.21-16.22,4.76-24l-.34-.07L72.9,487.71l-.75-.25c1.17-5.26,2.28-10.54,3.53-15.78s2.67-10.45,4-15.67l-.45-.17c-3.14,5.84-6.45,11.6-9.39,17.55-2.66,5.39-9.23,16.1-10.72,16.61,6.62-25.56,16.05-50,26.73-74.05a103.13,103.13,0,0,0-5,9.33c-2.66,5.47-5.1,11.05-8,16.39-3.31,6.08-6.84,12.06-10.6,17.88-3.14,4.88-6.68,9.5-10.16,14.15-2,2.61-4.08,5.09-6.25,7.53-1.31,1.47-2.87,2.73-4.32,4.08L41,485c13.18-30.06,30.17-58.07,47.17-86.12a3.42,3.42,0,0,0-1.26,1c-1.18,1.39-2.28,2.84-3.53,4.16-2.58,2.71-5.25,5.32-7.84,8-3,3.16-6,6.37-9,9.55-2.73,2.85-5.48,5.69-8.21,8.55s-5.61,6-8.52,8.88c-2.18,2.17-4.6,4.1-6.8,6.24-3.9,3.77-7.55,7.8-11.6,11.38-4.85,4.29-10,8.23-15,12.3a4.5,4.5,0,0,1-1.19.48C24,456.72,34.89,446,45,434.52,34.45,442.88,24.43,452,13,459.23a66.14,66.14,0,0,1,5.93-6.87q4-4.17,8.23-8.23c4.47-4.33,9-8.63,13.47-12.95.32-.3.67-.57,1-.89,2.09-2.14,4-4.41,6.27-6.4,5.31-4.76,10.75-9.39,16.14-14.07,4.38-3.81,8.68-7.73,13.18-11.4,4.12-3.35,8.49-6.4,12.69-9.65a14.87,14.87,0,0,0,2-2.36A83.82,83.82,0,0,0,82.67,391c-4,2.2-7.92,4.47-12,6.55-3.87,2-7.83,3.83-11.79,5.66C56,404.6,53,405.82,50.1,407.1s-5.65,2.42-8.43,3.72c-3.15,1.47-6.23,3.15-9.41,4.56-4,1.75-8.08,3.25-12.08,5-4.94,2.12-9.83,4.35-14.76,6.48A36.26,36.26,0,0,1,1.94,428a2.11,2.11,0,0,1,1-1.31c4.3-2.48,8.62-4.93,12.91-7.43,2.77-1.61,5.52-3.28,8.28-4.93.57-.34,1.1-.75,1.68-1,2.66-1.36,5.36-2.64,8-4s5.1-2.88,7.68-4.28c1.55-.83,3.14-1.58,4.72-2.34,2.23-1.07,4.47-2.09,6.69-3.18s4.1-2.22,6.22-3.2q4.76-2.2,9.59-4.21c3.89-1.63,7.83-3.16,11.73-4.76,1.44-.59,2.84-1.26,4.26-1.9-14.07,3.3-27.89,7.22-41.9,10.28s-28.38,5.34-42.58,8c-.07-.28-.13-.56-.2-.84,19.29-7.07,38.85-13.33,58.62-19-18.57,2.91-37.23,4.61-55.89,6.26l-.18-.82,53.64-14.22C39.3,376.16,22.45,377,5.57,377.62a48.73,48.73,0,0,1,6.87-2c3.68-.85,7.38-1.66,11.07-2.49,5.74-1.31,11.47-2.7,17.23-3.9q9.1-1.87,18.3-3.45c6.43-1.09,12.86-2.21,19.33-2.91,6.86-.75,13.78-1.14,20.67-1.45a71.86,71.86,0,0,1,12.1.31c7.16.91,7.14,1.1,12.92-3.18,1.12-.83,2.27-1.64,3.38-2.49a17.31,17.31,0,0,0,1.42-1.39,6.67,6.67,0,0,0-1.6-.14c-2.64.5-5.26,1.17-7.92,1.57A292.44,292.44,0,0,1,79.7,359.4c-9,.11-18.05-.16-27.07-.43-5.22-.16-10.43-.58-15.63-1-6.36-.53-12.71-1.2-19.06-1.8-1-.1-2.05-.16-3.08-.22l-6.37-.37c0-.19,0-.38,0-.57a4.25,4.25,0,0,1,.93-.36c5.48-.75,10.94-1.57,16.43-2.18q13-1.44,26-2.63c5.38-.49,10.77-.91,16.15-1.08,6.51-.2,13-.25,19.56-.09,6,.15,12,.39,18,1.09,7.73.9,15.4,2.25,23.09,3.5a4,4,0,0,0,3.94-1.26,36.67,36.67,0,0,1,4.64-4.35c3.1-2.35,6.37-4.5,9.55-6.76a13.31,13.31,0,0,0,1.29-1.26l-40.79-1.07a211.18,211.18,0,0,1,28.83,9,5,5,0,0,1-2.6,1c-4.67.14-9.35.31-14,.23-7.91-.13-15.83-.24-23.72-.74-7.33-.47-14.66-1.26-21.93-2.25s-14.33-2.29-21.47-3.61q-16.59-3.06-33.14-6.33c-1.95-.38-3.82-1.11-5.73-1.67,0-.22.05-.44.08-.67,15.79-.86,31.6-1.2,47.45-.79L23.45,326.8l.06-.89c9.89-.19,19.77-.56,29.66-.53s19.89.45,29.84.7c-19.66-4.67-39.48-8.66-59-14a53.19,53.19,0,0,1,7.57-.06c5.41.25,10.83.45,16.25.79,7.1.45,14.19,1,21.28,1.54,2.57.21,5.12.57,7.69.86,0-.17,0-.35.07-.52L28.51,303.43c0-.17,0-.33,0-.5a3.15,3.15,0,0,1,1-.27q6.06.31,12.11.68l15.42.91c5.57.34,11.15.61,16.71,1,4.47.35,8.92.91,13.38,1.34a7.88,7.88,0,0,0,1.84-.24c0-.38,0-.76,0-1.14a16.54,16.54,0,0,1-3.3,0c-3.68-.72-7.33-1.56-11-2.41-6.34-1.49-12.67-3-19-4.52-5.63-1.29-11.29-2.47-16.64-4.71l-1.79-.75c.49-.53.83-.68,1.16-.65,5.5.39,11,.77,16.49,1.25,5.92.51,11.82,1.16,17.74,1.71,3.74.34,7.51.37,11.22.91,12.12,1.76,24.22,3.67,36.32,5.54,1.16.18,2.33.36,3.47.64,6.14,1.48,12.29,2.95,18.41,4.51,5.68,1.44,11.38,2.83,17,4.56,6.08,1.87,12,4.1,18,6.22.47.16.82.64,1.23,1l-.31.57-40-3.84c3.63,1.23,7.3,2.18,10.9,3.31,5.72,1.79,11.38,3.73,17.1,5.52,1.31.41,3.09,1.1,4,.56,4.4-2.52,8.57-5.45,12.84-8.19,3.84-2.46,7.7-4.88,11.56-7.31.25-.15.54-.24.8-.38,3-1.67,6-3.34,9-5,.07,0,0-.27.05-.71l-52.68-9.22c0,.11,0,.24-.05.35l38.12,15.77c-.08.22-.17.43-.25.64A639.88,639.88,0,0,1,42.05,270.22a269,269,0,0,1,27.61,4.34c0-.19.09-.38.13-.58l-14.63-4.69c-.28-1-.53-2-.89-3.27,1.73.38,3.12.75,4.54,1,5.82.92,11.66,1.72,17.47,2.69,8.93,1.49,17.85,3,26.76,4.66,11.37,2.09,22.73,4.17,34.05,6.5,5.52,1.13,10.94,2.75,16.37,4.28q7.83,2.19,15.6,4.65c4.44,1.42,8.82,3,13.23,4.56,5.72,2,11.5,3.82,17.11,6.08,4.35,1.76,8.36,2.49,12.18-.92a10.59,10.59,0,0,0,1.07-1.32c-27-7.36-53.82-14.48-79.94-23.87s-51.5-20.38-77.42-31.12c2-.2,3.57-.65,5-.42a59.41,59.41,0,0,1,6.74,1.82c2.62.72,5.22,1.46,7.84,2.15,2.91.76,5.84,1.42,8.74,2.22,5.52,1.51,11,3.11,16.55,4.62s11.17,2.88,16.7,4.48c6.25,1.8,12.43,3.8,18.65,5.72,5.6,1.73,11.29,3.2,16.79,5.22a340.8,340.8,0,0,1,39.25,17.15c7.13,3.7,14.19,7.56,21.32,11.25a3.48,3.48,0,0,0,2.67.06,47.62,47.62,0,0,0,5.42-2.87c1-.62,2-1.42,3.53-2.56-28.28-8.13-55.55-17.52-82.36-28.2a845.28,845.28,0,0,1-78.67-36.51,12.4,12.4,0,0,1,3.55.46c2.18.6,4.34,1.31,6.53,1.91,3.87,1.08,7.77,2,11.63,3.16,6.4,1.86,12.77,3.87,19.17,5.75,5.08,1.49,10.19,2.85,15.27,4.32,6.82,2,13.62,4,20.45,6,4.56,1.33,9.15,2.56,13.7,3.9q8,2.37,16,4.86c5,1.57,10.08,3.08,15,4.85,5.79,2.08,11.51,4.32,17.2,6.65q10.25,4.2,20.37,8.68c5.21,2.31,10.31,4.87,15.49,7.27a2.43,2.43,0,0,0,1.76,0c3.53-1.56,7.05-3.18,10.54-4.83,1.86-.88,3.67-1.86,5.75-2.92l-47.84-21-.33.57a375.17,375.17,0,0,1,39.1,23.33,31.1,31.1,0,0,1-5.7-1.44c-6.44-2-12.92-3.93-19.31-6.1-6.58-2.23-13.11-4.62-19.6-7.11-8.42-3.23-16.86-6.41-25.12-10-8.45-3.67-16.7-7.79-25-11.74-8.58-4.07-17.21-8.09-25.73-12.3-9.42-4.66-18.74-9.5-28.11-14.26l-15.76-8,1.19-1.92L165.28,238l.18-.48L95.58,208.71c.08-.22.15-.44.23-.65l3,.68-1.89-2.57.25-.31L113,210.54l.24-.65L83.14,193a1.52,1.52,0,0,1,1.34-.42c5.84,2.15,11.73,4.18,17.49,6.54,11.81,4.84,23.55,9.86,35.32,14.81,6.7,2.82,13.41,5.62,20.1,8.46,5.27,2.24,10.47,4.63,15.79,6.75,3.4,1.35,7,2.27,10.43,3.46,7.73,2.66,15.44,5.32,23.14,8,5,1.77,10,3.5,14.83,5.57,5.59,2.38,11.07,5,16.51,7.72q8.67,4.31,17.15,9c4.57,2.5,9,5.24,13.53,7.81a3.17,3.17,0,0,0,2.23.57c3-1.12,5.87-2.44,8.84-3.72-.22-.31-.32-.58-.48-.64-4.37-1.51-8.76-2.94-13.1-4.52-7.91-2.87-15.87-5.66-23.68-8.81-9.74-3.93-19.37-8.1-29-12.31q-10.58-4.63-21-9.64c-7.12-3.43-14.14-7.07-21.2-10.61l-34.64-17.4q-12.76-6.42-25.51-12.88a4.35,4.35,0,0,1-1.23-1.26c-.44-.56-.79-1.19-1.24-1.74a10.09,10.09,0,0,0-1.06-1l.39-.59c34.12,13.22,68.28,26.32,102.1,40.35-6.1-3.64-12.34-7-18.51-10.45s-12.42-7.16-18.63-10.73-12.26-7.08-18.41-10.59S142.09,187.77,136,184c-5.92-3.63-12.53-6.08-18.15-10.21.09-.15.17-.3.25-.45,2.09,1,4.18,1.94,6.26,2.91l.23-.42-6.17-4,.45-.7c.8.4,1.57.82,2.38,1.19,8.51,3.78,17.06,7.47,25.53,11.34q18,8.24,35.95,16.67c9.7,4.55,19.42,9.09,29,13.91,10.15,5.11,20.23,10.35,30.16,15.86,8.95,5,17.71,10.28,26.47,15.59,5.28,3.2,10.4,6.67,15.57,10.06a45.66,45.66,0,0,1,6.27,4.39c1.95,1.81,3.46,2.36,6.19,1.26,5.4-2.19,11.08-3.67,16.62-5.49,1.3-.42,2.55-1,3.81-1.49l-.09-.58c-26-11.27-51.75-22.93-76.87-36,6.46,4.54,13.11,8.76,19.67,13.13s13.27,9,19.85,13.6c6.38,4.44,12.78,8.85,18.73,13.89a9.62,9.62,0,0,1-3.4-1.14c-5.19-2.83-10.33-5.73-15.53-8.53-9.42-5.06-18.87-10-28.28-15.09-8.34-4.48-16.64-9-24.95-13.52-7-3.77-13.94-7.49-20.85-11.35-4.73-2.64-9.31-5.53-14-8.23-9.88-5.69-19.8-11.32-29.7-17-8.76-5-17.54-10-26.24-15.12-1.13-.67-1.86-2-2.77-3.08l.58-.78,50.36,22.45.18-.38-37.62-19.66.33-.72,10.86,3.78.27-.6L146,162.93l.42-.76,62.45,27.26c-.18-.59-.18-.79-.27-.84-7.45-4.38-14.9-8.77-22.37-13.11q-17.43-10.14-34.87-20.25c-.48-.27-.78-.84-1.17-1.27.16-.23.31-.46.46-.7,2.27.86,4.59,1.59,6.8,2.59,7,3.17,13.95,6.45,20.94,9.65,8.15,3.72,16.35,7.32,24.47,11.1q11.85,5.53,23.58,11.35c12.71,6.29,25.49,12.46,38,19.15,9.54,5.11,18.75,10.82,28,16.47,5.66,3.46,11.09,7.28,16.6,11,4,2.71,8.08,5.39,12,8.28,2.77,2,5.32,4.38,8,6.59-.08.23-.15.46-.23.7a11.13,11.13,0,0,1-2.32-.17,27.68,27.68,0,0,1-3.71-1.4q-14.56-6.8-29.1-13.63L289.42,233c.32.63.36.89.52,1,8.41,5.84,16.81,11.72,25.3,17.47,1.6,1.08,2.78,3.07,5.5,2.17,6.1-2,12.33-3.62,18.5-5.42,1.74-.5,3.46-1.09,5.31-1.67-.32-.47-.39-.73-.56-.82-6.65-3.66-13.41-7.13-19.95-11-8.67-5.13-17.23-10.48-25.72-15.92-7.07-4.52-14-9.24-21-14-6.16-4.2-12.25-8.5-18.31-12.84-5.77-4.12-11.43-8.38-17.18-12.53q-7-5.07-14.14-10-6-4.2-12.14-8.28c-2.73-1.83-5.61-3.44-8.25-5.4-3.47-2.56-6.6-5.61-10.19-8-6-4-12.33-7.71-18.5-11.55-.82-.52-1.57-1.15-2.35-1.73.14-.2.28-.4.43-.59l22.51,13,.36-.48c-4-3-8-5.95-12.11-8.77s-8-5.64-12.06-8.47l.41-.58q4.11,2.31,8.24,4.61c5.9,3.28,11.83,6.49,17.7,9.8,6.86,3.87,13.68,7.81,20.51,11.74,8.56,4.92,17.16,9.75,25.63,14.82s17.29,9.63,26.2,14c5.54,2.69,11,5.65,16.21,8.86,6.91,4.22,13.65,8.74,20.36,13.26,9,6.06,18,12.13,26.79,18.41,7,5,13.75,10.27,20.57,15.47a11.4,11.4,0,0,1,1.63,2.18c-.74.13-1.05.3-1.28.22-11.83-4-22.2-11-33.16-16.73L346.85,246,370,240.5c-5.87-3.71-11.57-7.2-17.15-10.87-9.31-6.12-18.62-12.23-27.79-18.56-7-4.84-13.82-10-20.73-15-5.66-4.09-11.39-8.08-17-12.23-5-3.73-9.94-7.63-14.9-11.46-4.6-3.56-9.25-7.07-13.8-10.69-3.81-3-7.39-6.38-11.3-9.28-5.32-3.93-10.75-7.74-16.34-11.27-5.87-3.7-12-7-18-10.52-.25-.14-.37-.52-.75-1.11,5.76,1.94,10.26,5.89,15.89,7.14.14-.23.27-.47.4-.71l-26-17.49c.11-.18.22-.36.34-.54,19.64,10.39,38.41,22.3,57.72,33.29q-6.15-5.13-12.71-9.61c-4.4-3-8.91-5.81-13.42-8.61s-8.91-5.4-13.38-8.1c.11-.17.22-.35.32-.53q27.33,14.19,53.81,29.9c17.59,10.46,34.89,21.37,51.68,33.13a27.3,27.3,0,0,0-3.83-3.7c-4.05-3.35-8.15-6.64-12.17-10-3.18-2.68-6.25-5.48-9.4-8.2-2.48-2.15-5.05-4.2-7.49-6.39-3.52-3.17-6.92-6.48-10.45-9.65s-7.14-6.21-10.74-9.29c-3.86-3.31-7.56-6.85-11.67-9.82-6-4.37-12.39-8.31-18.6-12.46-.45-.3-.86-.68-1.29-1l.43-.56,16.24,10c-6.08-6.29-13.19-11.46-19.38-17.63a13.73,13.73,0,0,1,3.24,1.9c3.3,2.43,6.53,5,9.89,7.3,5.08,3.55,10.29,6.88,15.35,10.45,7,4.9,13.8,10,20.74,14.92,5.47,3.89,11,7.67,16.52,11.5,7.3,5.08,14.59,10.18,21.91,15.23,3.85,2.67,7.81,5.18,11.61,7.92,5,3.63,10,7.37,14.88,11.16,3.93,3,7.83,6.12,11.57,9.37s7.2,6.63,10.75,10c3.3,3.13,6.7,6.16,9.76,9.52,3.51,3.85,6.71,8,10,12,1.08,1.3,2.07,2.69,3.19,4,.4.46,1.11,1,1.61,1,2.7-.37,5.37-.91,8.57-1.49-2.73-2.24-5.07-4.17-7.42-6.07-4-3.27-8.1-6.47-12.07-9.8-3.14-2.61-6.16-5.37-9.23-8.07-2.74-2.42-5.5-4.83-8.23-7.26-2.29-2.05-4.56-4.12-6.84-6.19-2.81-2.55-5.64-5.09-8.45-7.66s-5.37-5-8.12-7.42c-3.13-2.76-6.35-5.4-9.52-8.12-2.92-2.51-5.77-5.11-8.74-7.55-2.75-2.27-5.55-4.49-8.47-6.54-4.29-3-8.66-5.94-13.07-8.77-6.83-4.39-13.73-8.69-20.6-13-1.73-1.09-3.49-2.12-5.23-3.18l.47-.78,26.43,14.92.32-.48a512,512,0,0,0-46.39-34c14.61,8.1,28.75,16.94,42.94,25.78-6.08-6.49-12.23-12.86-18.75-18.85s-13.42-11.88-20.38-17.53c-6.8-5.51-13.88-10.67-20.83-16l.63-.85,28.24,20.63a6.68,6.68,0,0,0-.69-1.38q-3.51-3.95-7.08-7.85-4.32-4.68-8.68-9.34c-1-1.13-2.14-2.22-3.15-3.38-1.4-1.59-2.74-3.23-4.1-4.85l.56-.47L259,86l5.47,5c2.47,2.27,4.94,4.53,7.39,6.81s5.09,4.81,7.68,7.18,5.43,4.86,8.15,7.3c2.38,2.16,4.74,4.34,7.14,6.49,2.67,2.39,5.37,4.73,8,7.12,2.35,2.09,4.66,4.24,7,6.31,2.57,2.26,5.2,4.44,7.77,6.69,2.14,1.88,4.19,3.87,6.36,5.7,3.27,2.75,6.66,5.35,9.91,8.11,2.44,2.08,4.76,4.31,7.14,6.46,3.84,3.48,7.69,6.94,11.53,10.43,1.3,1.18,2.48,2.51,3.88,3.55,2.75,2,5.64,3.9,8.43,5.9,4.27,3.07,8.57,6.12,12.74,9.32,3.71,2.85,7.26,5.9,10.88,8.85,2.82,2.3,5.66,4.58,8.45,6.92,3.45,2.91,6.9,5.81,10.26,8.82,2.66,2.39,5.22,4.91,7.76,7.44s5.23,5.12,7.6,7.9,4.55,3.37,8.06,1.58c0-.13,0-.33-.12-.4-4.34-3.56-8.7-7.07-13-10.65-6.93-5.78-13.91-11.53-20.72-17.47-4.19-3.65-8.12-7.6-12.15-11.45-6.41-6.13-12.87-12.2-19.16-18.47-4.81-4.8-9.44-9.78-14-14.82s-9.2-10.48-13.79-15.73c-.25-.28-.51-.54-.77-.8-2.51-2.58-5.1-5.09-7.5-7.75-2.7-3-5.24-6.1-7.84-9.16-.1-.12-.2-.22-.3-.32l-8.76-9.22c-.2-.21-.38-.45-.6-.64q-4.36-3.93-8.75-7.84a75.47,75.47,0,0,0-6.58-5.7c-5.06-3.56-10.29-6.85-15.44-10.28a4.19,4.19,0,0,1-.81-1.07c.17-.22.35-.43.52-.64l19.4,12.71c-5.25-6.78-12-12.17-17.37-18.78a11.21,11.21,0,0,1,2.84,2q4.94,4.31,9.87,8.61c2.25,2,4.46,4,6.72,6,2.48,2.14,5,4.22,7.48,6.35,2.31,2,4.58,4,6.88,6,2.52,2.19,5,4.34,7.55,6.54,2.3,2,4.54,4.1,6.83,6.11,1.58,1.39,3.22,2.7,4.79,4.09,2.28,2,4.49,4.13,6.8,6.12,3.44,3,7,5.82,10.39,8.84s6.81,6.35,10.23,9.49c4.08,3.75,8.19,7.45,12.28,11.17q1.95,1.75,3.87,3.56c3.07,2.91,6.21,5.75,9.18,8.76,2.43,2.45,4.64,5.12,7,7.67,4.66,5.09,9.52,10,13.95,15.3,3.93,4.68,7.51,9.68,11,14.69,3.69,5.23,7.12,10.66,10.71,16a2.55,2.55,0,0,0,1.67,1.16c2.75-.11,5.49-.43,8.58-.71-1.78-1.94-3.17-3.59-4.7-5.09-4.2-4.12-8.56-8.08-12.66-12.3-5.43-5.6-10.68-11.38-16-17.1-1.95-2.1-3.82-4.29-5.77-6.39-2.79-3-5.69-5.92-8.43-9-3.24-3.62-6.35-7.34-9.52-11-4-4.62-8-9.25-12-13.86-4.37-5.05-8.62-10.2-13.18-15.07-3.38-3.6-7.14-6.84-10.76-10.22-1.17-1.1-2.41-2.11-3.61-3.18-2.61-2.33-5.24-4.63-7.81-7s-5-4.71-7.48-7c-2.83-2.6-5.73-5.14-8.58-7.72-2.33-2.1-4.61-4.25-6.95-6.34-2.71-2.41-5.48-4.77-8.2-7.17-.8-.72-1.57-1.48-2.35-2.23l.51-.6,35.7,27C328.38,96.29,312.93,82,294.69,70.44c13.56,6.31,24.45,16.12,35.14,26.25-7-11.16-16.33-20.51-24.12-31.07a4.49,4.49,0,0,1,1.65,1.3c2.13,2.33,4.24,4.67,6.41,7,2.5,2.65,5.1,5.22,7.57,7.9s4.65,5.31,7,7.93c1.51,1.69,3.08,3.33,4.66,5,2.54,2.6,5.17,5.11,7.64,7.77s4.7,5.44,7.11,8.11c1.66,1.86,3.4,3.64,5.15,5.41,2.26,2.29,4.6,4.51,6.84,6.83,3.26,3.36,6.46,6.78,9.7,10.16q1.89,2,3.88,3.86c2,1.85,4,3.62,5.93,5.49s4,4,6,6c2.34,2.43,5,4.68,6.89,7.4,2.62,3.68,6.26,6.13,9.49,9.09,2.36,2.17,4.8,4.25,7.17,6.41,2.54,2.32,5,4.69,7.54,7q4.5,4.17,9,8.36c1.66,1.56,3.27,3.16,4.91,4.74,1.85,1.77,3.72,3.5,5.53,5.3s3.55,3.7,5.35,5.52c3.6,3.64,7.4,7.11,10.81,10.92,3.69,4.1,7,8.52,10.53,12.77.4.48,1,1.11,1.53,1.1,2.27,0,4.55-.28,7.16-.47a8.18,8.18,0,0,0-.93-1.26c-1.78-1.48-3.6-2.91-5.39-4.39-1.11-.93-2.18-1.91-3.27-2.88-2.68-2.35-5.41-4.64-8-7.07-2.81-2.65-5.49-5.44-8.24-8.15-1.3-1.28-2.63-2.52-4-3.76-1.81-1.69-3.7-3.3-5.46-5s-3.6-3.85-5.43-5.74c-1.43-1.47-2.92-2.88-4.37-4.31-2.13-2.11-4.3-4.19-6.39-6.35s-3.87-4.2-5.83-6.28c-1.55-1.66-3.14-3.29-4.72-4.92-2.5-2.58-5-5.09-7.48-7.72-2.59-2.81-5.05-5.74-7.58-8.61L382.59,137c-.54-.61-1-1.26-1.56-1.87-4.16-4.84-8.38-9.63-12.49-14.51-3.56-4.22-7-8.59-10.53-12.8a54.1,54.1,0,0,0-5.11-5.16q-5.17-4.68-10.53-9.19C338.29,90,334.12,86.7,330,83.35c-1.89-1.53-3.8-3-5.7-4.53l.44-.55c7.19,4.9,14.06,10.25,20.88,15.77a6.14,6.14,0,0,0-1.25-2.17c-2.25-2.61-4.54-5.2-6.79-7.8-2.69-3.11-5.35-6.23-8.05-9.33-.33-.38-.87-.57-1.21-.94-1.4-1.58-2.76-3.2-4.14-4.81l.49-.43a5.72,5.72,0,0,1,.82.57c1.51,1.49,2.95,3.05,4.51,4.47,2.78,2.53,5.7,4.92,8.44,7.49s5.35,5.33,8.05,8c1.24,1.22,2.55,2.37,3.84,3.54,2.76,2.47,5.59,4.87,8.27,7.43,2.89,2.76,5.63,5.7,8.47,8.51,1.29,1.28,2.68,2.45,4,3.66,1.62,1.46,3.28,2.88,4.87,4.37,2.59,2.44,5.1,5,7.72,7.39s5.62,5,8.41,7.51c1.35,1.21,2.61,2.52,4,3.72,2.52,2.18,5.2,4.19,7.6,6.49,3.17,3,6.13,6.27,9.18,9.41,4.08,4.22,8.22,8.38,12.23,12.67,3.86,4.13,7.61,8.37,11.34,12.63,4.75,5.42,9.51,10.84,14.09,16.41,4.92,6,9.85,12,14.37,18.26,3.24,4.51,5.81,9.49,8.71,14.25.25.41.73,1,1.1,1,3-.07,5.93-.25,9.39-.43-1.92-2.06-3.48-3.69-5-5.35-6.93-7.62-13.89-15.22-20.76-22.89-3-3.41-5.89-7-8.81-10.48-5.56-6.68-11.21-13.28-16.63-20.07-4.87-6.11-9.48-12.44-14.2-18.67-6.73-8.87-13.65-17.61-20.13-26.66a139.3,139.3,0,0,0-15.44-17.8c-2.23-2.2-4.44-4.44-6.83-6.46-3-2.55-6.18-4.86-9.23-7.32-1.13-.91-2.12-2-3.18-3l.44-.52L378.53,97l.36-.44L357.5,74.09l.44-.43,12.53,10.66a53.84,53.84,0,0,0-5.22-7.75c-2.31-2.86-4.71-5.66-7.23-8.33-1.88-2-4.07-3.74-6-5.67-1.73-1.68-3.28-3.53-5-5.18-1.42-1.34-3.07-2.46-4.55-3.75s-2.88-2.65-4.31-4l.49-.51a148.43,148.43,0,0,1,24.85,22.62c-3.16-4.81-6.56-9.41-9.92-14s-8-8.12-10.37-13.43c2.15,2,4.15,4.07,6.13,6.2.81.86,1.49,1.82,2.31,2.67,2.27,2.36,4.64,4.63,6.88,7s4.48,5.23,6.85,7.71c3.83,4,7.85,7.86,11.65,11.89,5.23,5.54,10.34,11.17,15.47,16.8q5.76,6.33,11.45,12.75c3.95,4.43,7.92,8.86,11.83,13.35,5,5.7,9.83,11.48,14.8,17.18,1.64,1.87,3.47,3.58,5.23,5.34,2.07,2.06,4.23,4,6.25,6.16,2.21,2.34,4.28,4.82,6.45,7.19,1.69,1.84,3.43,3.62,5.16,5.41,2.49,2.58,5.08,5.08,7.48,7.75,2.91,3.22,5.65,6.58,8.49,9.86,2.11,2.44,4.27,4.86,6.39,7.29,4,4.61,8.24,9.05,12,13.87,5.43,7,10.49,14.26,15.73,21.4.29.4.71.95,1.09,1,2.08.06,4.15,0,6.55-.08-.71-1-1.1-1.57-1.57-2.13-4.23-5.1-8.7-10-12.69-15.33-10.27-13.61-20.35-27.36-30.47-41.08-2.81-3.8-5.47-7.7-8.3-11.48s-5.48-7.31-8.39-10.83c-4-4.88-8.22-9.63-12.32-14.46-3.59-4.2-7.14-8.43-10.72-12.64-2.19-2.59-4.36-5.2-6.6-7.74-3.25-3.68-6.58-7.3-9.85-11-2.69-3-5.33-6.09-8-9.11-1.65-1.87-3.26-3.78-5-5.54-3.32-3.33-6.74-6.54-10.09-9.83a11.71,11.71,0,0,1-1.16-1.54l.46-.34,1.61,1.09c.06-.1.14-.19.2-.29l-8.73-9.42c.47-.22.7-.22.84-.1,2.85,2.41,5.71,4.8,8.5,7.27,3.35,3,6.61,6,9.95,9,3.58,3.19,7.26,6.27,10.81,9.49,2.64,2.41,5.13,5,7.72,7.44q4.85,4.6,9.76,9.15a9,9,0,0,0,1.84,1,81.23,81.23,0,0,0-5.38-9.77c-1.93-3-4.13-5.75-6.18-8.64-5.35-7.51-10.84-14.92-15.95-22.6A62.79,62.79,0,0,0,392,54.52c-.29-.27-.67-.87-.56-1.07,1.12-2-.68-2.75-1.55-3.84a28.67,28.67,0,0,0-2.81-2.81c-1.69-1.58-3.41-3.14-5.14-4.68-1.13-1-2.32-1.93-3.48-2.9.1-.19.18-.38.28-.58a4.52,4.52,0,0,1,1.39.42c2.74,2.15,5.6,4.19,8.11,6.59s4.44,5.09,6.73,7.57a27.5,27.5,0,0,0,3.19,2.56l.4-.3L386.24,35.3l.44-.29c.46.56.95,1.1,1.37,1.68,2.18,3,4.27,6,6.52,9q9.82,12.81,19.77,25.54a10.46,10.46,0,0,0,1.25,1.24c1.85,1.75,3.73,3.49,5.56,5.27s3.74,3.71,5.61,5.56,4,3.87,5.91,5.88c2.07,2.17,4,4.44,6.1,6.63,1.5,1.6,3.06,3.16,4.61,4.71,2.17,2.18,4.42,4.29,6.53,6.52,2.27,2.41,4.36,5,6.62,7.37,4.18,4.44,8.46,8.77,12.6,13.23,3.84,4.15,7.58,8.39,11.3,12.63,2.77,3.16,5.52,6.33,8.14,9.6,5.54,6.9,11.06,13.81,16.44,20.83,6.81,8.9,13.64,17.8,20.16,26.92,5.14,7.18,9.84,14.69,14.69,22.08,1,1.52,1.82,3.16,2.76,4.73.21.34.57.81.89.83,2.36.14,4.72.17,7.68.26-.74-1.11-1.07-1.72-1.5-2.26-2.44-3-5-5.91-7.31-9q-7.61-10.34-15-20.86c-5.41-7.73-10.71-15.54-16-23.33-2.63-3.83-5.29-7.64-7.84-11.52-2.86-4.37-5.36-9-8.49-13.18-4.42-5.89-9.29-11.44-13.92-17.18-4.89-6.09-9.69-12.25-14.59-18.33-2.86-3.56-5.86-7-8.74-10.53-3.26-4-6.39-8.1-9.68-12.07-2.91-3.49-5.82-7-9-10.23a82.44,82.44,0,0,0-8-6.82c-3.81-3-7.71-5.92-11.59-8.85-.8-.6-1.67-1.11-2.51-1.66l.43-.63c6.35,2.33,11.31,6.78,16.43,11.11-3.67-6.22-9.66-10.72-12.83-17.29a5.83,5.83,0,0,1,1.59,1.4c1.84,2,3.65,4,5.55,6,2.24,2.31,4.58,4.52,6.85,6.79,1.77,1.76,3.47,3.58,5.23,5.34,2.07,2,4.2,4,6.27,6.1,2.27,2.26,4.51,4.55,6.76,6.85,1.94,2,3.87,4,5.77,6,2.21,2.33,4.37,4.71,6.58,7,1,1.08,2.17,2.09,3.26,3.13a49.32,49.32,0,0,0-3.42-7c-1.89-3.21-3.91-6.36-5.87-9.54-.11-.18-.2-.39-.31-.59-1.63-3.09-3.18-6.23-4.93-9.27-1.9-3.31-4-6.51-6-9.77-3-4.95-5.82-10.08-9.14-14.83-3.16-4.52-6.82-8.68-10.33-12.94-1.48-1.81-3.15-3.46-4.72-5.18-1.41-1.55-2.8-3.11-4.2-4.67,4.37,1.83,7.24,5.51,10.5,8.7.17-.13.33-.28.5-.42l-8-11,.58-.45c2.07,2.34,4.2,4.62,6.19,7,2.86,3.47,5.61,7,8.4,10.55,6.68,8.43,13.62,16.67,20,25.35,12.36,16.91,25.4,33.34,36.67,51.05,4.16,6.53,8.63,12.85,12.95,19.27.21.31.39.63.57.95,2.7,4.55,5.12,9.3,8.16,13.6s6.9,8.43,10.39,12.62c5.27,6.34,10.74,12.52,15.78,19,6.23,8.05,12.18,16.33,18.1,24.62,2.83,3.95,5.33,8.13,7.94,12.23.34.54.36,1.3.72,1.83.92,1.39,1.72,3.56,3,3.89,2.88.74,6,.58,9.55.82-1.53-2.08-2.75-3.72-3.94-5.37-8.83-12.19-17.78-24.3-26.46-36.6-6.62-9.39-12.94-19-19.34-28.55-2.79-4.15-5.45-8.39-8.16-12.59-.12-.19-.2-.4-.3-.59-2.09-3.7-4.15-7.42-6.28-11.1-1.8-3.1-3.7-6.16-5.54-9.24-1.43-2.4-2.88-4.79-4.26-7.21-2.06-3.63-4-7.29-6.11-10.91-1.6-2.8-3.35-5.51-4.93-8.33-1.71-3.06-3.19-6.26-4.95-9.3-1.93-3.35-4.06-6.57-6.09-9.86-.31-.5-.53-1.05-.83-1.57-2-3.51-3.85-7.12-6-10.5s-4.61-6.32-6.92-9.47a14.32,14.32,0,0,1-.9-1.51l.36-.23L473,55.81l.38-.27c-.46-.7-.91-1.39-1.38-2.08-.7-1-1.5-2-2.11-3.1-1.71-3.06-3.1-6.33-5.06-9.22-3.62-5.3-7.58-10.37-11.37-15.54-.43-.59-.76-1.24-1.13-1.85l.47-.3,3.46,4.05.3-.3Q454.28,23.08,452,19l.44-.25c.38.42.8.81,1.15,1.26,4.58,5.79,9.22,11.52,13.69,17.38q16.41,21.46,32.67,43c5.72,7.61,11.34,15.31,16.74,23.14,6.23,9,12.18,18.27,18.25,27.42,1,1.47,1.87,3,2.89,4.44a33.47,33.47,0,0,0,2.24,2.53l.41-.39c-2.67-4.13-5.32-8.27-8-12.38-2.23-3.39-4.56-6.71-6.77-10.11-4.16-6.42-8.27-12.89-12.41-19.32q-4.41-6.89-8.88-13.74c-4.95-7.58-9.85-15.2-14.93-22.69a48.12,48.12,0,0,0-5.23-5.95c-2.41-2.53-4.94-4.94-7.37-7.46a27,27,0,0,1-1.95-2.62l.61-.55L484,50.8a25.48,25.48,0,0,0-2.4-4.95c-1.78-2.72-3.74-5.31-5.55-8A26.24,26.24,0,0,1,474.6,35l.65-.42a8.28,8.28,0,0,1,1.17,1q6.34,7.89,12.65,15.82c4.31,5.41,8.65,10.79,12.88,16.26,8.83,11.44,17.7,22.85,26.37,34.41,8.56,11.39,16.88,23,25.32,34.43a23.52,23.52,0,0,0,1.7,1.9l.34-.32c-1.21-1.84-2.52-3.62-3.63-5.52-2.11-3.59-4-7.28-6.18-10.87s-4.47-7.22-6.67-10.85c-1.38-2.25-2.71-4.54-4-6.85-1.77-3.19-3.41-6.45-5.23-9.61s-3.79-6.09-5.59-9.19c-2.33-4-4.57-8-6.83-12-.29-.5-.48-1.07-.76-1.59-1.48-2.78-2.94-5.57-4.47-8.32-1.39-2.48-2.88-4.91-4.28-7.39C507,53.94,506,52,504.92,50.08c-1.8-3.32-3.44-6.73-5.43-9.93-1.76-2.81-3.92-5.36-5.87-8-.69-1-1.29-2-1.94-3l.34-.25,2.8,3.12.44-.34-5.64-10.72.71-.42c.46.63.95,1.23,1.36,1.88,1.61,2.55,3.08,5.19,4.81,7.65,8.73,12.51,17.43,25,26.3,37.46,13.69,19.15,27.57,38.16,41.23,57.34,7.3,10.25,14.31,20.72,21.46,31.09a6.42,6.42,0,0,1,.34.56c2.86,5.21,5.68,10.44,8.56,15.63,2.38,4.29,4.84,8.54,7.24,12.82,1,1.72,1.9,3.45,2.72,5.24,1.59,3.42,3,6.91,4.63,10.33,2,4.22,4.19,8.33,5.94,12.64,2.2,5.37,4.05,10.87,6,16.34a2.88,2.88,0,0,0,2.88,2c2.12.15,4.25.38,6.38.53a5.3,5.3,0,0,0,1.29-.28,7.81,7.81,0,0,0-.54-1.37c-1.62-2.43-3.33-4.79-4.88-7.26-2.22-3.54-4.32-7.17-6.51-10.74-4.07-6.65-8.2-13.28-12.27-19.94q-2.13-3.47-4.09-7c-1.84-3.33-3.57-6.73-5.44-10-1.63-2.87-3.46-5.62-5.07-8.5-2.77-5-5.39-10-8.17-15s-5.57-9.64-8.34-14.48c-1.2-2.1-2.36-4.22-3.46-6.38-2.07-4-4-8.1-6.11-12.13-1.84-3.57-3.77-7.09-5.62-10.65-.8-1.55-1.53-3.15-2.26-4.74-.92-2-1.77-4.11-2.74-6.14s-2-3.72-2.88-5.64c-2.06-4.5-4-9.09-6.05-13.57s-4.46-9-6.71-13.56c-.84-1.7-1.69-3.4-2.52-5.11-1.22-2.48-2.38-5-3.63-7.45-1.09-2.15-2.27-4.26-3.41-6.38-1.62-3-3.14-6.14-4.89-9.1-2.2-3.74-4.61-7.35-6.87-11-3.27-5.33-6.49-10.69-9.71-16.06a16,16,0,0,1-.81-2l.56-.34a17.52,17.52,0,0,1,1.72,1.84c4.17,5.9,8.39,11.76,12.44,17.74,4.21,6.21,8.27,12.53,12.36,18.81a17.88,17.88,0,0,1,1.1,2.39,6.67,6.67,0,0,0,3.06,3.68l-8.65-18.42.55-.34c.39.55.81,1.08,1.19,1.63l15.09,22.11q2.19,3.19,4.35,6.4c5.49,8.2,10.88,16.48,16.5,24.59,5.13,7.39,10.57,14.58,15.77,21.93,3.78,5.36,7.37,10.86,11.07,16.28a14.4,14.4,0,0,0,1.38,1.56c-2.09-4.65-4.52-9-6.88-13.34-1.08-2-2-4-3-6s-1.83-4.12-2.86-6.11c-1.14-2.21-2.43-4.33-3.61-6.51-.9-1.66-1.75-3.35-2.58-5-1.17-2.41-2.27-4.86-3.46-7.26-1-2-2.06-3.83-3-5.79-1.88-3.84-3.71-7.71-5.54-11.57-1-2.11-1.91-4.25-2.93-6.34a49.08,49.08,0,0,0-3.23-6.19c-2.61-3.84-5.43-7.54-8.23-11.24-.79-1-1.87-1.85-2.76-2.82a22.24,22.24,0,0,1-1.36-1.83l.45-.42,4.55,3.15c-2.72-5-5.59-9.69-8.64-14.25-1.85-2.75-4-5.3-6-8a13.65,13.65,0,0,1-.85-1.49l.58-.41,10,11.69.25-.18L542.8,16.73l.55-.32A27.37,27.37,0,0,1,545.23,19c1.81,3.19,3.41,6.51,5.35,9.62,3,4.88,6.23,9.65,9.45,14.42q7.47,11.09,15.07,22.08,7,10.2,14.08,20.37,13.68,19.59,27.41,39.14c.89,1.27,1.81,2.52,2.65,3.82,4.7,7.23,9.36,14.48,14,21.72l8.65,13.34c.17.25.27.52.42.78,2.27,3.94,4.52,7.89,6.84,11.8,1.91,3.22,3.94,6.37,5.86,9.59,1.1,1.82,2.1,3.69,3.13,5.54,1.24,2.25,2.49,4.49,3.68,6.75,1.43,2.72,2.77,5.48,4.21,8.18,1.25,2.32,2.69,4.53,3.86,6.89q2.72,5.47,5.15,11.09c2.11,4.85,4.09,9.77,6.14,14.66.16.37.39.91.68,1,1.75.38,3.52.65,5.28,1l.32-.6c-.78-1.22-1.6-2.41-2.32-3.66-1.23-2.16-2.48-4.31-3.55-6.54-1.6-3.35-3-6.78-4.55-10.17-1.29-2.86-2.65-5.69-3.89-8.57s-2.26-5.68-3.48-8.48q-2.61-6-5.38-11.92c-1.68-3.64-3.36-7.3-5.2-10.86-2.15-4.18-4.53-8.24-6.71-12.4s-4-8.13-6.11-12.17c-1.73-3.38-3.58-6.7-5.34-10.07-.85-1.62-1.61-3.28-2.42-4.92-1.67-3.34-3.43-6.64-5-10-2-4.3-3.76-8.69-5.73-13-1.48-3.23-3.19-6.35-4.69-9.58-2.19-4.68-4.26-9.41-6.4-14.12-.78-1.73-1.59-3.44-2.4-5.16-2.31-4.87-4.51-9.79-7-14.59-2.19-4.3-4.71-8.43-7-12.68-2.18-4.06-4.2-8.21-6.41-12.25a29.88,29.88,0,0,0-3.13-4.55c-2.72-3.38-5.55-6.66-8.31-10a6.69,6.69,0,0,1-.72-1.38l.43-.31,6.52,6.78.39-.26C587,35.8,584.7,32.45,584,28.39a30.76,30.76,0,0,1,2.34,3.86q3.3,5.34,6.75,10.6c3.63,5.54,7.33,11,11,16.56.29.43.56.87.84,1.3,4.4,6.89,8.82,13.76,13.19,20.67.93,1.48,1.66,3.1,2.53,4.62a8.1,8.1,0,0,0,1,1.13l.39-.29c-.62-1.53-1.3-3-1.87-4.6q-3-8.05-5.88-16.12c-1.55-4.31-3-8.64-4.58-13-1.1-3.06-2.3-6.09-3.37-9.16s-2-6.37-3.17-9.47A70.16,70.16,0,0,0,599.21,26c-1.86-3.41-4.09-6.62-6.06-10C592,14.05,591,12,590,10c3.69,3,5.48,7.3,7.87,11.2l.54-.33Q595.55,12.39,592.69,4l.55-.26a14,14,0,0,1,1.48,2.07c2,4.06,3.87,8.16,5.82,12.24.78,1.64,1.65,3.25,2.43,4.91,1.6,3.43,3.11,6.89,4.75,10.3a27.1,27.1,0,0,0,2.48,4.1c1.16,1.61,2.61,3,3.75,4.63,6.38,9.05,12.68,18.14,19,27.2a12.35,12.35,0,0,0,1.22,1.29c-1-3.61-2.32-7-3.63-10.29s-2.68-6.74-4-10.11c-1.54-3.84-3-7.69-4.61-11.52-1.52-3.68-3.23-7.3-4.69-11-1.73-4.42-3.54-8.79-6.4-12.63-1.33-1.77-2.66-3.54-4-5.33a8.89,8.89,0,0,1-.66-1.35l.41-.27,6,5.47.59-.53c-1.6-3-3.7-5.82-4.28-9.7.53.43.75.53.84.7q3.32,5.82,6.6,11.66c.14.25.24.54.38.79,1.72,3.14,3.39,6.31,5.17,9.41s3.6,5.88,5.35,8.85c1.14,2,2.17,4,3.23,6,1.61,3,3.16,6.09,4.83,9.09,1.52,2.75,3.19,5.42,4.77,8.14,1.17,2,2.34,4.07,3.43,6.15,1.42,2.72,2.69,5.51,4.14,8.2,2.27,4.19,4.66,8.31,6.95,12.49,1.13,2.06,2.19,4.15,3.24,6.25,1.15,2.28,2.23,4.59,3.4,6.86s2.4,4.36,3.53,6.56c1.29,2.52,2.49,5.09,3.74,7.63,1.56,3.14,3.2,6.24,4.68,9.41s2.84,6.57,4.33,9.82c2,4.24,4.18,8.36,5.9,12.68a82.89,82.89,0,0,0,8.28,15.24c.41.61.74,1.26,1.1,1.91,1.95,3.45,3.87,6.91,5.85,10.35,1.61,2.8,3.32,5.54,4.93,8.33,1.13,2,2.19,4,3.24,6,1.42,2.72,2.76,5.48,4.2,8.19,1.27,2.4,2.65,4.72,3.93,7.11.87,1.6,1.68,3.24,2.48,4.89,1.08,2.24,2.09,4.51,3.19,6.74,1.65,3.34,3.44,6.61,5,10,2,4.3,3.85,8.66,5.68,13,2,4.68,3.81,9.39,5.71,14.08.16.38.31,1,.58,1.07,2.56.72,5.15,1.36,7.72,2,.1-.18.19-.38.29-.57-1.2-2.49-2.49-4.95-3.57-7.49-3.29-7.69-6.61-15.37-9.71-23.14-3.55-8.9-6.9-17.89-10.28-26.86-2.17-5.76-4.33-11.52-6.31-17.34-3.13-9.19-6.11-18.44-9.14-27.66-1.94-5.91-3.77-11.87-5.82-17.73-1.48-4.26-3.23-8.44-4.92-12.63-1.09-2.68-2.31-5.32-3.43-8s-2.33-5.67-3.55-8.48-2.53-5.56-3.76-8.36c-1.88-4.26-3.67-8.57-5.57-12.82-1.67-3.72-3.41-7.4-5.14-11.09A54.16,54.16,0,0,0,672,65.71c-1.35-2.28-2.88-4.44-4.3-6.67-.25-.4-.59-1.07-.42-1.36.78-1.45.12-2.53-.66-3.67a2.08,2.08,0,0,1-.46-1.39c.66-2.82-1.06-5-1.92-7.39-1.12-3-2.54-6-3.82-9-1.63-3.8-3.28-7.6-4.87-11.41-.51-1.21-.88-2.48-1.32-3.72a11.56,11.56,0,0,1,3,3.43c2,3.48,3.83,7.06,5.82,10.54,1.74,3,3.64,6,5.41,9,1.11,1.9,2.12,3.84,3.16,5.78,1.68,3.13,3.37,6.28,5,9.43.57,1.09,1,2.22,1.63,3.3a24.5,24.5,0,0,0,1.38,2.1l.31-.26c-5.9-20.2-11.79-40.41-17.81-61L664.36,5c-.56-1.69-1.05-3.21-1.56-4.72l.8-.31c6.48,14.69,13.12,29.3,19.41,44.07s12.46,29.67,18.27,44.67,11.1,30.14,16.61,45.23l.58-.16a4.71,4.71,0,0,0-.1-1c-.76-2.43-1.55-4.85-2.34-7.28-2.16-6.6-4.34-13.19-6.48-19.8-1.39-4.28-2.69-8.59-4.09-12.86-2-6-4-12-6-18-.52-1.59-.9-3.23-1.43-4.83-1.61-4.82-3.28-9.63-4.87-14.46-1.5-4.56-2.93-9.15-4.4-13.73-1.83-5.7-3.64-11.4-5.49-17.08-1-3-2-5.91-3-8.88-.4-1.21-.71-2.46-1.06-3.69l.53-.21,2.31,3.49.38-.24c0-.41-.08-.81-.11-1.22a19,19,0,0,1,2.12,3.5c.84,1.69,1.7,3.38,2.49,5.09,1.55,3.38,3,6.79,4.58,10.16,1.45,3.13,3,6.22,4.45,9.35s2.7,6.31,4.15,9.41,3.13,6.25,4.68,9.39c.77,1.57,1.5,3.16,2.21,4.75,1.39,3.13,2.72,6.28,4.15,9.39s3,6.15,4.44,9.26,2.78,6.43,4.22,9.62c1.36,3,2.84,5.93,4.19,8.93,2.05,4.5,4,9,6.05,13.55.75,1.67,1.66,3.26,2.36,4.94,2.08,5,4.06,10,6.13,15,2.24,5.45,4.6,10.85,6.8,16.31q3.58,8.94,6.94,18c2.64,7.12,5.28,14.24,7.65,21.46a38.68,38.68,0,0,0,5.64,11.06c3.18,4.33,5.92,9,8.84,13.49.2.31.33.66.51,1Q778,223,781.07,228.4c1.39,2.42,2.91,4.76,4.1,7.27,2.13,4.47,4,9.05,6.08,13.57a51.24,51.24,0,0,1,4.61,15.2c0,.45.33,1.14.64,1.24,2.64.8,5.31,1.48,8.41,2.32-.25-1-.32-1.58-.51-2.09-.55-1.43-1.15-2.84-1.71-4.26-1.47-3.72-2.86-7.48-4.41-11.17s-3.41-7.56-5-11.37c-1.26-2.93-2.38-5.92-3.56-8.88-1.31-3.31-2.75-6.57-3.91-9.93-1.3-3.75-2.3-7.6-3.52-11.39-2.36-7.31-4.85-14.58-7.17-21.91-1.6-5.06-3-10.18-4.5-15.27s-3.07-10-4.49-15c-1.81-6.43-3.48-12.91-5.26-19.35-2.28-8.2-4.56-16.4-7-24.56-1.16-4-2.53-7.87-3.92-11.76-.91-2.53-2-5-3.06-7.46-1.17-2.81-2.34-5.63-3.54-8.44s-2.38-5.45-3.54-8.19c-1.25-2.93-2.46-5.88-3.7-8.82-1.07-2.53-2.15-5-3.23-7.58l.63-.37c3.53,5.27,6.31,11,9.79,16.33l.55-.31q-7.12-26.4-14.27-52.8l.83-.29c12.11,29.49,24.11,59,35.16,89Q755,66.62,746.67,20.78a32.2,32.2,0,0,1,2.25,5.34Q751.46,33,754,39.88q1.72,4.6,3.47,9.2c1.37,3.6,2.78,7.18,4.11,10.79,1.08,3,2,5.95,3.12,8.89,1.63,4.37,3.37,8.69,5,13.06,1.25,3.33,2.39,6.71,3.63,10.06,1.6,4.29,3.33,8.54,4.88,12.85,1.81,5,3.44,10.08,5.25,15.09,1.89,5.2,4,10.32,5.84,15.53q3.49,9.92,6.7,19.93c2.77,8.71,5.41,17.46,8.05,26.21.95,3.15,1.46,6.45,2.66,9.49,1.64,4.13,3.74,8.08,5.66,12.1.75,1.58,1.58,3.12,2.33,4.69,1.48,3.11,3,6.2,4.4,9.33s2.58,6,3.91,9,2.71,5.65,3.9,8.54c1.94,4.7,3.78,9.45,5.56,14.22,2.11,5.65,4.13,11.34,6.11,17,.18.5-.15,1.19-.25,1.78-.66-.14-1.5-.09-2-.48-.77-.66-1.21-1.69-1.95-2.39-.36-.34-1.07-.32-1.62-.47a4.18,4.18,0,0,0,0,1.65,16.56,16.56,0,0,0,1.43,2.33l-.36.66c-.87-.21-2-.17-2.57-.69-1.7-1.44-3.6-2.66-4.21-5.2-.46-1.92-1.82-3.61-2.78-5.42-1.6-3-3.17-6.09-4.82-9.1-.67-1.23-1.53-2.36-2.51-3.86-.25.73-.39.92-.37,1.11.51,7.6,1.12,15.21,1.52,22.83.12,2.17.23,4,3.15,3.88a2.9,2.9,0,0,1-2.92,2.27,33.1,33.1,0,0,1-4.15-.51c-2.23-.22-3.78.93-3.92,2.91a16,16,0,0,0,.13,2.07,9.85,9.85,0,0,1-1.61-.18c-3.37-1-6.73-2.08-10.1-3.11a2.18,2.18,0,0,0-2.74.62,35,35,0,0,1-4.34,4.35c-4,3.37-7.88,6.87-12.1,9.92-8.72,6.31-17.76,12.17-26.4,18.58-5.34,4-10.1,8.76-15.27,13-8.61,7.05-17.11,14.28-26.07,20.86-26.39,19.42-53,38.56-79.52,57.8-.71.52-1.49.93-2.24,1.39l-.21-.31,3.29-3.17-.14-.18-4.29,2.6-.51-.66,59.41-56.14a9.74,9.74,0,0,0-2.89,1.08,40.18,40.18,0,0,0-9.45,5.1c-3.55,2.75-7.2,5.42-10.93,7.93-9,6.1-18.19,12.06-27.25,18.15-7.64,5.14-15.17,10.45-22.82,15.58-4.59,3.07-9.32,5.93-14.1,9l-.64-.89-4.18,2c-.16-.24-.31-.49-.47-.74.62-.54,1.24-1.1,1.88-1.64,3.48-2.94,7-5.81,10.43-8.82,3.75-3.29,7.34-6.76,11.09-10s7.79-6.54,11.65-9.83q4-3.44,8-7c3.39-3,6.68-6.21,10.13-9.19,4-3.46,8.14-6.78,12.22-10.17.34-.28.64-.62,1-.91,3.67-3.28,7.29-6.63,11-9.82,4.3-3.68,8.73-7.23,13.09-10.84,6.65-5.5,13.06-11.32,20-16.42,13-9.58,26.28-18.78,39.5-28.06,3-2.11,6.22-3.91,9.35-5.84.25-.15.53-.26.79-.4,3-1.61,6.06-3.22,9.08-4.86.29-.16.47-.49.85-.91a9.31,9.31,0,0,0-1.3-.58c-4.85-1.23-9.71-2.41-14.55-3.69a3.11,3.11,0,0,0-3.19.94c-1.57,1.52-3.07,3.13-4.69,4.6-4,3.65-8,7.41-12.22,10.8-3,2.38-6.49,4.08-9.57,6.34s-6.21,4.9-9.22,7.46-5.83,5.16-8.7,7.79c-4.87,4.48-9.63,9.07-14.57,13.47-5.15,4.59-10.43,9-15.7,13.49q-6.51,5.47-13.13,10.8c-4.31,3.47-8.65,6.87-13,10.26-10.14,7.88-20.2,15.86-30.47,23.56-15.4,11.57-31,22.94-46.45,34.38-.55.41-1.16.72-1.74,1.08l-.26-.37,2-2.28-3.19,1a12.68,12.68,0,0,1,1.32-2.13c2.66-2.73,5.37-5.41,8.07-8.11,1.29-1.3,2.56-2.59,3.85-3.88l6.05-6.05c1.9-1.91,3.79-3.83,5.72-5.71,2.11-2,4.26-4,6.38-6.06,1.38-1.32,2.77-2.63,4.12-4,2.16-2.17,4.24-4.43,6.45-6.55s4.73-4.17,7-6.36c3.84-3.71,7.55-7.56,11.4-11.26q5.4-5.16,11-10.12c3.13-2.79,6.4-5.41,9.53-8.18,1.57-1.4,3-3,4.44-4.48a54.28,54.28,0,0,0-9.68,4.37c-16,11.4-31.87,22.91-47.85,34.29-8.34,5.94-16.82,11.7-25.25,17.5-6.2,4.25-12.38,8.54-18.68,12.63-3.48,2.26-6.57,5.49-11.5,5.24a9.69,9.69,0,0,1,1.15-1.86c1.75-1.77,3.52-3.53,5.37-5.19,3.16-2.85,6.4-5.62,9.59-8.45q5.51-4.89,11-9.81c.44-.4.92-.75,1.35-1.15,3.58-3.24,7.07-6.58,10.73-9.74,4.12-3.56,8.41-6.91,12.55-10.45,2.22-1.89,4.27-4,6.44-6l-1.59-.52c-.07-.19-.12-.37-.19-.55a28.62,28.62,0,0,0,3.65-2q11.17-8.49,22.27-17.1c4.19-3.26,8.24-6.69,12.37-10,7.14-5.72,14.17-11.59,21.48-17.07q20.91-15.67,42.14-30.91c4.95-3.55,10.37-6.45,15.56-9.67.93-.58,1.78-1.29,3-2.22-4.71-1-8.87-1.9-13.05-2.69a2.44,2.44,0,0,0-1.8.75c-1.77,1.74-3.23,3.85-5.16,5.35a223.7,223.7,0,0,1-27.52,18.37,88.58,88.58,0,0,0-13.81,10.13c-5.44,4.63-10.69,9.51-16.37,13.83-11.92,9.07-24,17.92-36.13,26.73q-15.39,11.19-31,22.08c-9,6.24-18,12.26-27.06,18.37q-7.23,4.89-14.48,9.74-9.54,6.4-19.07,12.81a42.41,42.41,0,0,1-4.71,3.29,56.59,56.59,0,0,1-6.45,2.27,19.13,19.13,0,0,1,3.32-3.93q10.81-9.57,21.72-19.05c3.27-2.85,6.62-5.62,10-8.39,4.3-3.58,8.64-7.11,12.94-10.69,3-2.44,5.86-4.93,8.77-7.41.37-.3.69-.66,1-1l-.35-.45-38.92,28.56-.27-.36,2.47-2.48L518,370l-3.27,1.7-.51-.68L550.41,336l-.43-.53c-.79.47-1.6.89-2.36,1.41q-12.57,8.6-25.13,17.23-9.37,6.4-18.79,12.78c-3.79,2.57-7.55,5.16-11.38,7.67q-8.49,5.57-17.07,11c-1.71,1.1-3.4,2.53-5.3,3a17.62,17.62,0,0,0-7.13,3c-3.75,2.87-7.59,5.63-11.39,8.43-.56.41-1.18.73-1.78,1.09l-.48-.58,49-49.77a48.74,48.74,0,0,0-7,3.46c-1.21.7-2.27,1.66-3.49,2.34-3.36,1.9-6.72,3.84-10.18,5.53a58.78,58.78,0,0,1-6.9,2.57c-.24.08-.66-.35-1.1-.59,2.8-2.26,5.48-4.33,8.05-6.52,4.14-3.53,8.14-7.22,12.33-10.7,5.61-4.66,11.35-9.17,17-13.75.52-.41,1-.9,1.48-1.33,4.17-3.61,8.26-7.32,12.53-10.8,6.56-5.35,13.24-10.55,19.87-15.81.24-.18.45-.39.68-.57,5.93-4.95,11.89-9.87,17.78-14.86,2.74-2.33,5.37-4.79,8-7.21,0-.05,0-.26-.13-.7-1.27.94-2.47,1.76-3.6,2.66L546.08,298.3c-1.33,1.05-2.73,2-4.07,3.05-5.45,4.26-10.77,8.72-16.36,12.78-9.48,6.87-19.23,13.38-28.7,20.26C481,346,465.08,357.53,448.32,367.9c-6.12,3.78-12.25,7.57-18.32,11.43-4.78,3.05-9.55,6.12-14.21,9.35-4.18,2.9-8.2,6.05-12.3,9.07-.66.48-1.4.86-2.11,1.28l-.36-.48,34.18-31.89a32.6,32.6,0,0,0-5.73,3.73c-7.26,5.8-14.44,11.69-21.73,17.43-1.3,1-2.84,2.15-5.11,1.4.57-.54,1-.9,1.37-1.29,1.72-1.67,3.47-3.31,5.14-5,1.82-1.88,3.5-3.89,5.36-5.74,3.1-3.09,6.32-6.07,9.46-9.13q2.1-2.05,4.11-4.2c1.81-2,3.52-4,5.39-5.93,2.46-2.51,5.07-4.89,7.54-7.4,2.21-2.24,4.27-4.62,6.46-6.88s4.72-4.71,7.07-7.08c1.5-1.49,2.94-3,4.45-4.52,1.77-1.73,3.63-3.38,5.39-5.12,2.38-2.36,4.71-4.77,7.06-7.15,1.69-1.71,3.44-3.37,5.08-5.13,2.38-2.57,4.64-5.24,7-7.8s5-5.13,7.43-7.73c.22-.23.09-.78.12-1.18C492.87,296.28,494.65,294.65,496.44,293Zm155.93-58.74c-4.38-6.46-8.85-12.87-13.16-19.38-4.43-6.69-8.7-13.48-13.06-20.22-1-1.6-2.14-3.17-3.22-4.76q-5.89-8.67-11.82-17.36c-.73-1.06-1.52-2.07-2.27-3.1l-.49.28c1.29,2.8,2.6,5.59,3.86,8.4,1.37,3.05,2.71,6.12,4,9.19,1.16,2.68,2.3,5.36,3.45,8s2.3,5.18,3.33,7.82c1.73,4.47,3.42,9,5,13.48,1.7,4.81,3.23,9.68,4.91,14.5.2.57.76,1.37,1.25,1.45,6.08,1,12.19,1.8,18.51,2.71A5,5,0,0,0,652.37,234.21ZM629.72,78.72c2.34,4.71,4.8,9.35,7.08,14.09s4.32,9.57,6.56,14.31c2.15,4.55,4.51,9,6.62,13.57,2.56,5.55,4.94,11.18,7.44,16.77,1.28,2.86,2.71,5.66,4,8.54,1.14,2.67,2.07,5.43,3.2,8.11a42.4,42.4,0,0,0,2.34,4.73c1.71,3,3.54,5.93,5.23,8.93,1.47,2.61,2.84,5.29,4.23,7.95,1.15,2.21,2.28,4.43,3.42,6.65,1.45,2.86,2.88,5.73,4.36,8.58,1.12,2.15,2.34,4.23,3.42,6.39s2,4.23,2.94,6.34c.74,1.59,1.46,3.19,2.24,4.76,2.17,4.45,4.45,8.86,6.54,13.35,1.31,2.82,2.36,5.78,3.54,8.66,1.44,3.49,2.9,7,4.35,10.46.06.13.22.25.23.37.37,4.53,3.93,4.14,7.19,4.71a7.83,7.83,0,0,0-.35-1.15c-3.47-6.06-7.06-12.06-10.42-18.18q-5.88-10.72-11.42-21.62c-3.06-6.06-5.85-12.26-8.77-18.4-2.79-5.84-5.67-11.63-8.36-17.51-1.88-4.11-3.46-8.36-5.27-12.5s-3.76-8.11-5.59-12.18c-1.1-2.46-2.14-5-3.14-7.47-1.89-4.74-3.45-9.63-5.66-14.22s-5.14-9-7.7-13.53c-1.84-3.25-3.56-6.56-5.39-9.82-1.55-2.75-3.22-5.44-4.75-8.2-1.69-3.06-3.27-6.2-4.95-9.27-1.55-2.85-3.18-5.65-4.78-8.47l-.58.32C628.22,75.43,628.92,77.1,629.72,78.72ZM349.53,218.92c1.43,1.22,3,2.28,4.38,3.57,3.9,3.73,7.74,7.53,11.58,11.33,1.45,1.43,2.88,2.9,4.23,4.42a12,12,0,0,1,1.25,2.1l26.08-5.19-39.45-25,30,25.07-.54.77q-20.4-10.5-40.8-21l-.42.57C347.07,216.68,348.26,217.84,349.53,218.92Zm192.32,11.87c-1.49,3-2.76,6-4.44,8.79-2.34,3.86-4.92,7.57-7.51,11.26s-5.09,7.08-7.77,10.52c-2.41,3.1-5,6.05-7.5,9.07-1.72,2.07-3.43,4.15-5.18,6.2-2.12,2.48-4.27,4.93-6.41,7.4a68.56,68.56,0,0,0-5.78,7.31,8.55,8.55,0,0,0,1.67-1.12c2.3-2.53,4.52-5.12,6.8-7.67q2-2.21,4-4.33c4.69-4.83,9.33-9.72,14.13-14.45,3.69-3.66,7.56-7.14,11.39-10.67,5.13-4.72,10.25-9.46,15.46-14.08,2.14-1.91,4.52-3.55,6.79-5.31l1.64-1.33c-.06-.22-.12-.43-.19-.65ZM654.1,242.92c-4.23-.67-8.46-1.28-12.67-2-1.46-.25-2.21.33-3.09,1.45q-3.87,4.95-8.08,9.64c-2.93,3.27-6,6.38-9.07,9.53-.66.68-1.48,1.22-2.17,1.87-1.26,1.18-2.48,2.4-3.72,3.6l.31.43c.26,0,.56,0,.76-.12,3.79-2.38,7.53-4.85,11.36-7.18s7.85-4.59,11.79-6.87l6.28-3.63,9.83-5.75c0-.18-.09-.37-.14-.56A10,10,0,0,0,654.1,242.92ZM426.73,201.24c3.28,5,6.67,9.89,9.83,14.94,1.7,2.72,3,5.7,4.52,8.53a14.41,14.41,0,0,0,2.22,3.54,3.84,3.84,0,0,0,2.67.48c4.54-.35,9.07-.8,13.6-1.23a5.83,5.83,0,0,0,.94-.39c-1.87-1.19-3.61-2.16-5.2-3.34-3-2.2-5.88-4.51-8.79-6.8-2.28-1.8-4.58-3.59-6.78-5.49-2.49-2.14-4.85-4.42-7.31-6.59-1.82-1.61-3.71-3.14-5.58-4.71l-.36.33A3,3,0,0,0,426.73,201.24Zm283.62,14.87a.63.63,0,0,1-.19,0c.71,2.53,1.39,5.07,2.12,7.59a144.29,144.29,0,0,1,4.65,21.17,2.49,2.49,0,0,0,1.42,1.75c4.49,1.15,9,2.13,13.54,3.15.18,0,.39-.13.57-.19Zm-51.57,1.49c1.91,5.71,3.39,11.57,5.15,17.33.26.84,1,2,1.67,2.17,4,.8,8,1.34,12,2,.18,0,.38-.14.49-.18q-12.15-17.67-24.25-35.27l-.45.29C655.19,208.45,657.22,212.94,658.78,217.6ZM442.75,233c-2.56.23-5.12.43-7.65.86a3,3,0,0,0-2,1.6,132.57,132.57,0,0,1-11.72,25.47,4,4,0,0,0-.15.72c.56-.24,1.06-.3,1.32-.59,3.57-3.93,7-8,10.7-11.81,3.35-3.46,7-6.65,10.47-10l6.81-6.43c0-.15,0-.3,0-.45C448,232.6,445.35,232.76,442.75,233Zm135.91,21.52c5.81-3.85,11.49-7.91,17.42-11.59,3.06-1.9,6.52-3.14,9.8-4.69.82-.38,1.63-.81,2.44-1.21l-.09-.54c-2.77-.41-5.54-.88-8.32-1.22-2.18-.27-4.4-.25-6.56-.59a3.52,3.52,0,0,0-3.7,1.73c-3.33,4.49-6.65,9-10.1,13.37-1.74,2.22-3.77,4.23-5.65,6.34-.12.14-.09.41-.24,1.26C575.58,256.28,577.18,255.49,578.66,254.51ZM477.13,230.83c-1.38,0-2.77-.05-4.16,0-2.79.13-5.58.26-8.35.54a2.85,2.85,0,0,0-2.06,1.09c-4.22,8.89-8.34,17.82-12.48,26.75,0,.09.07.17.1.25Zm68.35-23.46c2.12,5.09,4.31,10.17,6.3,15.32.86,2.21,1.51,3.06,3.81,3.18,4.23.22,8.46.37,13.13.56l-25.85-26.08-.34.06C543.52,202.73,544.51,205.05,545.48,207.37Zm-150,31.74c-.6.11-1.33,1.13-1.5,1.85-2.64,11.35-9.35,20.68-14.95,30.57,0,0,0,.13.18.67,9.65-12.14,19.07-24.12,30.31-35.3C404.52,237.66,400,238.29,395.49,239.11Zm-12.59,2.37c-5.28.59-10.2,2.08-15.06,2.77-1.67,4.89-3,9.7-5,14.27s-4.39,8.79-6.61,13.17l.13.06C365.13,261.78,373.85,251.8,382.9,241.48Zm-137.08,3.06c0,.07-.09.14-.14.21,1.9,1.11,3.81,2.18,5.69,3.33,4.43,2.71,8.87,5.39,13.25,8.19,4.87,3.11,9.65,6.34,14.48,9.5a4.87,4.87,0,0,0,5.37.18,58.6,58.6,0,0,1,6.86-2.57Zm339.89-60.36c-.23.77-.33.94-.28,1,2.19,3.56,4.46,7.08,6.58,10.68,1.88,3.22,3.59,6.53,5.38,9.81.1.19.18.4.29.59,2,3.24,4.06,6.44,6,9.72,2.16,3.66,4.24,7.36,6.27,11.09,1,1.77,2,3.17,4.31,3.14a34.88,34.88,0,0,1,5,.62c.09-.18.19-.36.29-.54C606.6,216.3,596.83,200,585.71,184.18ZM505.05,204.7l-.34.31c.64,1.5,1.31,3,1.92,4.5,2,4.85,3.89,9.72,5.93,14.54a2.09,2.09,0,0,0,1.58,1c4.54.08,9.09.07,14.12.08Zm-268.59,82c0-.2-.05-.39-.07-.59l-35-8.81-.12.18L226,291.89Zm495.07-28.22c-4.16-.9-7.84-1.72-11.53-2.43-.41-.08-1.1.46-1.43.89-2.43,3.27-4.75,6.64-7.24,9.87-1.29,1.67-2.87,3.13-4.31,4.69-.58.65-1.13,1.33-1.7,2,.13.12.27.25.39.38A103.5,103.5,0,0,0,731.53,258.49ZM475.09,203.08c.53,1.32.87,2.4,1.39,3.38,1.35,2.51,2.88,4.93,4.13,7.48,1.44,2.93,2.78,5.92,3.94,9,1,2.55,1.18,2.92,3.87,2.83,3.47-.11,6.95-.3,10.44-.45Zm102.55-9.91c2.09,3.36,4.28,6.67,6.28,10.08,1.77,3,3.34,6.18,5,9.26.28.52.61,1,.9,1.52,2.45,4.24,4.93,8.47,7.35,12.74a3.52,3.52,0,0,0,3.25,2.18c2.12,0,4.23.31,6.39.49L577.4,192.16l-.19.08A7.84,7.84,0,0,0,577.64,193.17ZM749,253.64l10.24,2.43.57-.51c-2.72-4.9-5.35-9.85-7.93-14.83s-4.81-10.19-7.2-15.29l-.53.22C746.05,234.82,748.38,243.92,749,253.64ZM517.67,230.71l-.15-.46c-2-.05-4-.15-6-.14-2.57,0-5.14.18-7.7.06-1.31-.06-1.73.52-2.24,1.54-2.58,5.12-5.25,10.19-7.94,15.38ZM505.61,189l-.35.23c.47.64.92,1.29,1.41,1.91,4.19,5.33,8.5,10.56,12.55,16,4.23,5.66,8.21,11.51,12.33,17.26a1.88,1.88,0,0,0,1.21.75c2.12.11,4.24.1,6.36.13l.22-.46Zm-105,33.08c2.69,3.41,5.46,6.75,8.24,10.08.38.45,1.09,1,1.59.94,3.73-.43,7.45-1,11.48-1.58l-26.62-17.08-.23.12C396.89,217,398.67,219.6,400.58,222.05Zm386.9,41.28c-.58-3.05-11.8-21.69-14.14-23.53.59,3.53,1.3,6.85,1.68,10.2s.39,6.7.57,10.15ZM137.9,325.72c6.43,2,12.81,4.18,19.23,6.26a2.41,2.41,0,0,0,1.65.13c3.08-1.81,6.1-3.73,9.14-5.61,0-.18-.08-.35-.13-.53L132,323.77c0,.13-.07.26-.11.39C133.86,324.68,135.92,325.09,137.9,325.72ZM288,267.39c-4.43,1.17-4.55,4.72-5.34,8.22a47.28,47.28,0,0,1-3.05,8.19c-1.49,3.46-3.15,6.84-4.45,10.42l21.6-29.93C293.62,265.43,290.89,266.64,288,267.39Zm-51.7-3.63-.14.3L257.52,277l10.31-4.45c0-.15,0-.29.05-.44Zm10.87,21.66c.1-.15-.11-.52-.21-.91-1.61.75-3.12,1.44-4.62,2.15-2.63,1.26-5.27,2.52-7.87,3.84a1.6,1.6,0,0,0-.64,1.06c-1.15,6.25-2.26,12.5-3.37,18.65C236,302,241.63,293.73,247.2,285.42Zm-83.15,46.91c-1.81,1.06-3.55,2-5.22,3.07a14.27,14.27,0,0,0-3,2.22,6,6,0,0,0-1.58,2.95c-1.23,7.93-2.31,15.87-3.45,23.81a12.12,12.12,0,0,1-.42,1.42l.2,0Zm56.38-34.61a60.32,60.32,0,0,0-8,4.57c-1.08.82-1.37,2.81-1.82,4.33-1.35,4.56-2.62,9.14-3.88,13.72a70.22,70.22,0,0,0-2.11,9.43L221.4,297.5A3.24,3.24,0,0,0,220.43,297.72ZM574.5,204.85l-.3.21c1,2.4,2,4.81,2.93,7.21,1.48,3.65,2.94,7.3,4.44,10.95.48,1.15,1,2.28,1.57,3.4.15.3.48.7.76.73,3.1.33,6.22.6,9.33.89.06-.22.13-.44.19-.67Zm107.74,43c-2.61-.44-5.24-.78-7.84-1.28a2.32,2.32,0,0,0-2.74,1.32c-2.83,5.3-7.09,9.37-11.45,13.38a20.65,20.65,0,0,0-2,2.45l.53.65,25.15-15.86A9.39,9.39,0,0,0,682.24,247.85Zm-325.92-.39-.42-.48c-3,.73-6,1.43-9.06,2.21-2.44.63-2.36,3.06-3,4.78-1.74,4.87-3.14,9.87-4.65,14.82a7.32,7.32,0,0,0-.19,1l.45.28ZM131.06,356.72a3,3,0,0,0-.67,2.11c0,4,.19,8,.24,12,0,1.68-.1,3.36-.16,5.62,3.9-9.75,7.6-19,11.46-28.6C138.05,351,134.5,353.8,131.06,356.72ZM253.94,281.3c-.47.2-1.07.7-1.13,1.14-1.18,7.58-4.53,14.39-7.52,21.32-1.39,3.24-3,6.4-4.44,9.6-.1.22-.12.49.23.9L261.54,278C258.61,279.28,256.26,280.24,253.94,281.3Zm369.14-42.53c-.05-.24-.11-.47-.16-.7-2.43-.3-4.92-1-7.27-.73-1.47.19-3.14,1.69-4,3.06-2.54,3.91-5.86,7-9.2,10.2-2.28,2.16-4.58,4.28-6.88,6.42l.27.45C604.9,251.23,613.09,243.71,623.08,238.77Zm67.22,1.41a1.72,1.72,0,0,0,1,1.22c3.63.83,7.28,1.55,10.92,2.3l.32-.52-13.79-15.7C689.3,232.05,689.75,236.12,690.3,240.18Zm88.16,30.33a44,44,0,0,0-6.23-1.6,3.94,3.94,0,0,0-2.69,1.48c-1.85,2.12-3.45,4.46-5.27,6.62-1.31,1.55-2.82,2.93-4.23,4.4l-4.59,4.75c.08.11.17.21.25.31Zm-642,64.66c4,1.07,8,2.16,12.07,3.2a2.46,2.46,0,0,0,1.7,0c2.22-1.51,4.36-3.14,6.53-4.73-.05-.19-.11-.38-.16-.57l-26.15.21,0,.36Zm136.69-61.71c-1,.34-1.94.59-2.8.94-1.67.7-3.34,1.41-5,2.21-.5.24-1.13.74-1.2,1.2-.78,5.59-3.13,10.65-5.24,15.8-.35.86-.71,1.71-1.07,2.57l.34.19C263.09,288.84,268,281.3,273.11,273.46Zm-145.23,86c-2.79,2-6.35,3-6.85,7.34-.67,5.62-1.69,11.19-2.63,16.78-.23,1.4-.69,2.76-1.05,4.14l.59.2Q122.92,373.73,127.88,359.49ZM310,260.27a3.68,3.68,0,0,1-.15-.35c-3.13,1.06-6.3,2-9.36,3.25-.67.27-1,1.52-1.34,2.39-1.2,3.37-2.34,6.77-3.48,10.17a3.42,3.42,0,0,0,0,.85l.49.3Zm-158.25,80.8c-.07-.1-.14-.21-.22-.31-1.83,1.35-3.57,2.84-5.51,4-2.62,1.55-2.47,3.76-2.32,6.35.14,2.31-.53,4.66-.81,7-.07.6-.06,1.21-.09,1.81l.43.06Zm16.69-11.69c-.45.36-.45,1.34-.55,2.06-.66,4.24-1.29,8.5-1.92,12.75a5.44,5.44,0,0,0-.06,2.21l9.45-21.58c-.1-.13-.21-.25-.31-.37C172.82,326.07,170.55,327.64,168.43,329.38Zm10-6.72a2.68,2.68,0,0,0-.61,1.59c-.49,2.89-.91,5.8-1.41,8.69-.18,1-.52,1.91-.78,2.86l.5.25q5-9.1,10-18.21l-.4-.61C183.35,319,180.88,320.8,178.48,322.66Zm234.11-86.19c-.37.07-.78.63-.95,1.05-1.55,3.75-3.05,7.52-4.57,11.28l.44.27,12.07-13.14c0-.15-.06-.3-.1-.44C417.18,235.81,414.87,236.07,412.59,236.47ZM807.78,255l-.41.13q.57,4.72,1.12,9.45c0,.15,0,.29.06.44.11,1.34-.25,3.09.47,3.92s2.53.89,3.86,1.29l1.86.56C812.33,265.37,810.05,260.2,807.78,255ZM101.16,369.49c2.78.07,5.56.19,8.35.28a1.65,1.65,0,0,0,.85-.11c2.25-1.61,4.46-3.25,6.68-4.88l-.27-.5-19.32,4.81c0,.15,0,.31-.07.46C98.64,369.53,99.9,369.46,101.16,369.49ZM571,233.32l-.27-.69c-2.16-.16-4.33-.36-6.49-.46a1.54,1.54,0,0,0-1.07.67c-1.56,2.51-3.07,5-4.6,7.58l.52.41Zm-369.81,75a1,1,0,0,0-.47.7,74.2,74.2,0,0,0-.32,9.26c2.62-4.48,5.24-9,8.12-13.91C205.79,305.84,203.5,307.06,201.23,308.3Zm135.15-56.4a2.17,2.17,0,0,0-1.29,1A84.14,84.14,0,0,0,332.4,262q5.34-5.72,10.66-11.45l-.15-.34C340.73,250.78,338.54,251.28,336.38,251.9Zm425-8.78-.17.07q1.68,5.31,3.35,10.63c.09.27.23.54.3.82.71,3.2,2.27,4.28,5.66,3.94Q766,250.87,761.39,243.12ZM535.72,230.66c-1.81,0-3.38-.45-4.58,0s-2,1.78-2.75,2.87c-1.88,2.66-3.64,5.4-5.45,8.11l.35.34Zm117-7.07-.35.07c.25,1,.45,2,.78,3,.7,2.07,1.85,4,2.11,6.16.31,2.53,1.63,3.2,3.77,3.31.49,0,1,.09,1.81.17ZM225.41,295.07a1.4,1.4,0,0,0-.56.88c-.52,3-1,6-1.48,9l.59.2L230.62,293l-.56-.29C228.5,293.5,226.94,294.26,225.41,295.07ZM118.85,367.12a7.13,7.13,0,0,0-5.25,5.52c-.3,2-.56,4.05-.84,6.07l.25.14ZM496.11,230.79c-4.32-1.74-6.25-.36-7.46,5.47Zm-67,4.3c-4-2.1-6.9.57-7,6.39C424.51,239.26,426.78,237.21,429.09,235.09Zm154.38-1c-5-1.55-4.69-1-8.4,5.14ZM100.21,374.24a39.08,39.08,0,0,0-6.77,2.28L97.7,376a37.31,37.31,0,0,1,4.81-.56c2.24,0,3.46-1.47,4.9-2.67-.07-.16-.13-.33-.19-.49ZM458.85,232.06c-3.41-.7-4.35-.3-6,2.68-.75,1.33-1.46,2.68-2.18,4l.4.37ZM356.16,252.65l6.75-6.5C358.4,245.67,357.7,246.35,356.16,252.65ZM389.7,240.4c-4.76,0-6.29,1.5-6,6Zm91-7.74c-.31.57-.6,1.15-1,1.7a4.13,4.13,0,0,0-.86,1.81l7.29-5.35C482.81,230,481.87,230.38,480.66,232.66ZM106.58,382.29c1.57-3,2.9-5.54,4.3-8.22C107.39,375.16,106.07,377.56,106.58,382.29Zm-3.25-1.81c-1.74.7-2.94,1.42-3.4,3.09-.57,2.08-1.25,4.14-1.88,6.21l.3.27C100,387,101.56,383.88,103.33,380.48ZM658.76,248.61l6.37-3.09c-.07-.2-.13-.4-.21-.61C662.49,244,661.18,244.69,658.76,248.61Zm-378.23,22c-4.4.52-5.6,1.71-4.25,4.54Z"/></g></g></svg>