<svg xmlns="http://www.w3.org/2000/svg" xmlns:xlink="http://www.w3.org/1999/xlink" viewBox="0 0 941.13 841.26"><defs><style>.cls-1{fill:url(#linear-gradient);}.cls-2{fill:url(#linear-gradient-2);}.cls-3{fill:url(#linear-gradient-3);}.cls-4{fill:url(#linear-gradient-4);}.cls-5{fill:url(#linear-gradient-5);}.cls-6{fill:url(#linear-gradient-6);}.cls-7{fill:url(#linear-gradient-7);}.cls-8{fill:url(#linear-gradient-8);}.cls-9{fill:url(#linear-gradient-9);}.cls-10{fill:url(#linear-gradient-10);}.cls-11{fill:url(#linear-gradient-11);}.cls-12{fill:url(#linear-gradient-12);}.cls-13{fill:url(#linear-gradient-13);}</style><linearGradient id="linear-gradient" x1="-2986.11" y1="316.06" x2="-2529.26" y2="588.33" gradientTransform="translate(3180.98)" gradientUnits="userSpaceOnUse"><stop offset="0.24" stop-color="#005547"/><stop offset="0.28" stop-color="#075b44"/><stop offset="0.33" stop-color="#196c3d"/><stop offset="0.39" stop-color="#378832"/><stop offset="0.45" stop-color="#60ae22"/><stop offset="0.49" stop-color="#7ec916"/></linearGradient><linearGradient id="linear-gradient-2" x1="-2936.59" y1="773.08" x2="-2286.66" y2="393.18" gradientTransform="translate(3180.98)" gradientUnits="userSpaceOnUse"><stop offset="0.4" stop-color="#005547"/><stop offset="0.43" stop-color="#106441"/><stop offset="0.51" stop-color="#378831"/><stop offset="0.59" stop-color="#56a425"/><stop offset="0.67" stop-color="#6cb91d"/><stop offset="0.74" stop-color="#7ac518"/><stop offset="0.81" stop-color="#7ec916"/></linearGradient><linearGradient id="linear-gradient-3" x1="-3006.57" y1="430.32" x2="-2736.3" y2="482.73" gradientTransform="translate(2943.7 -369.99) rotate(-5.22)" gradientUnits="userSpaceOnUse"><stop offset="0.35" stop-color="#005547"/><stop offset="0.43" stop-color="#075b44"/><stop offset="0.53" stop-color="#196c3d"/><stop offset="0.65" stop-color="#378832"/><stop offset="0.79" stop-color="#60ae22"/><stop offset="0.87" stop-color="#7ec916"/></linearGradient><linearGradient id="linear-gradient-4" x1="-2549.65" y1="209.9" x2="-2503.5" y2="209.9" gradientTransform="translate(3180.98)" gradientUnits="userSpaceOnUse"><stop offset="0" stop-color="#ff00bf"/><stop offset="1" stop-color="#e8ff16"/></linearGradient><linearGradient id="linear-gradient-5" x1="-2546.38" y1="225.71" x2="-2476.89" y2="225.71" xlink:href="#linear-gradient-4"/><linearGradient id="linear-gradient-6" x1="-2536.37" y1="249.59" x2="-2449.53" y2="249.59" xlink:href="#linear-gradient-4"/><linearGradient id="linear-gradient-7" x1="-2600.23" y1="222.6" x2="-2536.7" y2="222.6" xlink:href="#linear-gradient-4"/><linearGradient id="linear-gradient-8" x1="-2912.33" y1="512.61" x2="-2438.38" y2="512.61" gradientTransform="translate(3180.98)" gradientUnits="userSpaceOnUse"><stop offset="0" stop-color="#005547"/><stop offset="0.14" stop-color="#075b44"/><stop offset="0.34" stop-color="#196c3d"/><stop offset="0.58" stop-color="#378832"/><stop offset="0.84" stop-color="#60ae22"/><stop offset="1" stop-color="#7ec916"/></linearGradient><linearGradient id="linear-gradient-9" x1="-2821.88" y1="106.14" x2="-2801.82" y2="106.14" xlink:href="#linear-gradient-4"/><linearGradient id="linear-gradient-10" x1="-2820.42" y1="117.93" x2="-2766.19" y2="117.93" xlink:href="#linear-gradient-4"/><linearGradient id="linear-gradient-11" x1="-2810.79" y1="137.23" x2="-2728.59" y2="137.23" xlink:href="#linear-gradient-4"/><linearGradient id="linear-gradient-12" x1="-2887.95" y1="128.86" x2="-2811.23" y2="128.86" xlink:href="#linear-gradient-4"/><linearGradient id="linear-gradient-13" x1="-2669.98" y1="699.3" x2="-2196.03" y2="699.3" gradientTransform="translate(2506.55 -799.07) rotate(-12.82)" gradientUnits="userSpaceOnUse"><stop offset="0.12" stop-color="#005547"/><stop offset="0.21" stop-color="#075b44"/><stop offset="0.35" stop-color="#196c3d"/><stop offset="0.52" stop-color="#378832"/><stop offset="0.7" stop-color="#60ae22"/><stop offset="0.81" stop-color="#7ec916"/></linearGradient></defs><g id="Layer_2" data-name="Layer 2"><g id="Layer_16" data-name="Layer 16"><path class="cls-1" d="M656.34,120.42c-2.57-3.86-23.3,4.86-55,22.91a63.8,63.8,0,0,1,1.38,15.6c-4.23-3.56-9.45-5.86-15-7.65-19.94,11.87-43.19,26.71-68.36,43.91.7,7.84-1.75,15.77-4.72,23.42A51.3,51.3,0,0,0,503.78,206c-29.59,20.7-61.33,44.31-93.13,69.9.85,6.9-1,13.91-3.27,20.75a49.35,49.35,0,0,0-6.2-13.07c-21.54,17.6-43,36.05-63.78,55.09,4.54,9.84,8.68,20,9.76,30.56-7.3-7.41-17.33-10.86-27.68-13.8q-17,16.2-33,32.82a101.94,101.94,0,0,1,13,28.53c-7.71-6.62-18-9.37-28.3-12.32-15.62,17-30.22,34.17-43.38,51.37,13.23,16.69,29,30.38,44,46.19,22.41,23.12,27.45,54.65,28.57,86.06a49.75,49.75,0,0,0-4.06-10.77c-14-22.76-18.39-49.9-35-67.41-13.89-13.29-32.79-21.16-52.37-26.77-3.3,6.31-11,21.07-29,55.47,20.94,24.7,20.94,20.33,29.69,38.71,1.75,7-3.43,5-.88,11.38-1.75-4.38-2.62-.87-8.75-6.13-3.5-4.37-6.52-6.61-8.75-4.37.87-.88-.88-3.51-5.26-3.51-7.88,1.76-5.25.88-10.5.88-3.54,0-12.83,3.2-15.76,1.75C150,596,150.79,594.43,135.45,623.8c-.18.35-.46,1-.79,1.81,10.69,14.06,16.45,31.28,19.64,48.86-9.34-5.9-19.36-10.35-29.71-11.19a13.88,13.88,0,0,0,.12,2.43,354.11,354.11,0,0,1,4.51,42c3.73,8.26,5.16,17.35,5.91,26.62.85,2.08,1.82,4.33,3,6.82.36.8,29.81,41.46,44.65,30.64,71.09-51.86,16.52-20.81,103.94-127.93,51.73-63.39,152.54-258.24,275.76-390.44C573.67,241.32,659.08,124.51,656.34,120.42Z"/><path class="cls-2" d="M941.12,545.13c-.9-3.26-14.08-10.3-36.1-18.93q-5.06,3.19-10.33,6.16a24.1,24.1,0,0,1,.2,10.91,24.1,24.1,0,0,0-.2-10.91c-9,5-18.28,9.58-27.47,13.75,9.19-4.17,18.5-8.72,27.47-13.75a40.59,40.59,0,0,0-5.57-12.11c-15.14-5.42-33.07-11.23-53.1-17a137.21,137.21,0,0,1-16.66,12.51A90.79,90.79,0,0,1,824.55,533a90.79,90.79,0,0,0-5.19-17.16c-8.4,5.56-17,10.83-24.43,17.52,7.42-6.69,16-12,24.43-17.52a152.42,152.42,0,0,0-10-19.77c-25.93-6.71-54.42-13.06-84.3-18.3-4.42,7.52-10.26,14.31-16.52,20.74,1.49,6.51,1.42,13.56,1.59,20.69-.17-7.13-.1-14.18-1.59-20.69-6.22,6.39-12.84,12.44-18.9,18.53,6.06-6.09,12.68-12.14,18.9-18.53a29.23,29.23,0,0,0-7.92-14.72c-3.88-3.86-7.66-7.69-11.25-11.61a813.07,813.07,0,0,0-95.65-7.75C582,477,568.77,489,558.33,502.51a72.61,72.61,0,0,1,12.34,25.89,72.61,72.61,0,0,0-12.34-25.89c-7.54,9.8-13.64,20.46-16.71,32.89,3.07-12.43,9.17-23.09,16.71-32.89-10.59-14.28-25.69-24.85-41.29-34.59q-17.25,2.06-33.88,5.41c-2.87,6.15-6.17,12-9.53,17.87a123.66,123.66,0,0,1,9.77,13.91,123.66,123.66,0,0,0-9.77-13.91c-7.79,13.48-15.9,26.64-19.77,42,3.87-15.32,12-28.48,19.77-42a102.37,102.37,0,0,0-12.3-12.76,303.53,303.53,0,0,0-31.86,10.4c.21,1.41.45,2.82.74,4.24,4,32.66,34.49,57.49,27.94,91.28-2.23,13.29-8.83,24.51-14.68,36.09-.15,5.84-.24,11.58-.12,17.11-.12-5.53,0-11.27.12-17.11-4.15,8.2-7.92,16.57-9.5,26,1.58-9.42,5.35-17.79,9.5-26,1-38.34,4.89-81.47-29.52-103.24a79,79,0,0,0-22.13-10q-6.21,3.75-12.12,7.89a392.09,392.09,0,0,0-35.61,27.46c19.77,21.1,33.75,51,29.84,79.73a65.45,65.45,0,0,1,2.42,11.55,65.45,65.45,0,0,0-2.42-11.55,67.64,67.64,0,0,1-5.86,19.88,67.64,67.64,0,0,0,5.86-19.88c-7.86-25.8-30.41-42.21-52.09-58.07-14.67,15.62-31.46,36-54,65.45,9.84,27.06,11.43,56.21,10.24,85a52,52,0,0,1,5.76,17.68,52,52,0,0,0-5.76-17.68c-.32,7.6-.82,15.17-1.42,22.68.6-7.51,1.1-15.08,1.42-22.68-9.08-17-26.54-29.36-42.19-42.3-3.11,4.22-6.3,8.56-9.59,13.06-2.38,3.25-38.75,58.77-38,67.65,3.72,44.56.31,13,3.72,44.56.1.88,15.31,48.72,32.79,43.1,83.77-26.95,186.4-144.37,303-218.68,69-44,121.41-43.8,252.62-47.49C796.93,574.16,942.44,549.88,941.12,545.13Z"/><path class="cls-3" d="M239.58,156.91l-21.26,1.94a288.17,288.17,0,0,1,20.05-28c-1.06-19.15-2.56-38.3-4.53-57.3-9.77-1.49-19.85-1.24-30-1.56,6.8-10.42,16.5-19.17,26.66-26.72q-2-15.3-4.48-30.36c-1-6.06-2.16-12.59-6.58-14.35-6.79-2.7-16.71,5.41-28.62,21.39,1.68,5.55,3.11,11.24,4.72,16.86-4-2.13-7.82-4.65-11.67-7-10.43,15.55-22.09,36.1-34.33,60,4.71,9.62,9,19.51,13.07,29.51-7.89-2.94-16.22-4.63-24.49-6.64-6.9,14.18-13.92,29.21-21,44.82a216.51,216.51,0,0,1,18.18,27,195.28,195.28,0,0,0-24-14c-6.1,13.78-12.18,27.93-18.19,42.29,12.41,22.79,23.64,46.67,27.12,72.25-8.91-19.39-21.43-36.7-35-53.12-8.69,21.29-17.15,42.83-25.14,64,11.16,14.55,21.16,29.74,29.08,46C77.89,334.09,65.37,325.57,53,317c-6,16.36-11.71,32.44-17,47.94,11,23.82,24.93,46.1,38.37,69,7.46,12.58,8.67,26.17,11,39.79-14.49-31.41-34-60.33-56.79-86.55C15.48,427.76,5.81,463.11,1.74,487.77,21.41,507,46.3,520.19,66.53,540.16A55,55,0,0,1,82,567.52c-18.84-25.73-50.2-37.86-82-43.73.72,20.26,2.14,39.92,3.88,58.06a145.15,145.15,0,0,1,27.71,24c15.21-4.26,33.19,3,38,20.62q1.95,7.06,4.1,14.08c.67,2.21,1.31,4.45,2,6.65.31,1,.65,1.94,1,2.9q1.23,3.2-1.09-2.55c-.68,1.29,4.64,8.53,5.53,9.91s1.95,2.82,2.91,4.25l.38.43c5.55,6.36,11.37,12.5,17.39,18.41.93.92,1.92,1.75,2.93,2.58a59.47,59.47,0,0,1,15.79,11.69,44.78,44.78,0,0,1,4.6,5.67c.26-.16.52-.3.78-.45a76.7,76.7,0,0,0,13.94-10.94c10.08-9.92,19.49-23.52,28-38.49-7.57-7.24-17-12.64-26.59-17,14.59-11.22,31.45-19,48-27.18a630.29,630.29,0,0,0,22-60.95c-14.24.83-28.83.3-41.69,6.42C150.24,562,131,573.26,113.31,586.81,125.8,567.64,146.92,554.54,165,540c16-12.88,33.89-21,52.36-28,4.22-27.33,9.48-66.38,13.93-112.7-22.23,6.67-42.71,18-62,33.92-4.91,4-10,6.18-15,9.27q-1.71,1.38-3.45,2.7c4.45-3.4,7.82-8,12.32-11.42,24.07-19,45.55-40.53,70.05-56.19,1.56-18.2,3-37.34,4.12-57.17a437.24,437.24,0,0,0-42.06,12.19c13-9.56,27.92-16.92,42.7-23.64,1-19.45,1.78-39.5,2.21-60a194.6,194.6,0,0,0-39.75,11.46c12.51-10.07,25.71-19.07,40-25.82C240.78,209.12,240.54,183.08,239.58,156.91Z"/><path class="cls-4" d="M641.31,270.2c3.41-4.26,1.05-10.35,5.13-19.21a30.09,30.09,0,0,1,3.87-6.2c9-11.94,37.55-134.34,23.21-87.55-3.25,10.6-36.65,62.72-35.3,77.62a114,114,0,0,1,.35,13.17c-.15,5.21-.23,7.81-1.06,10.85-2.14,7.9-6.78,10.41-6.11,12.55S638.09,274.23,641.31,270.2Z"/><path class="cls-5" d="M642.43,258c4.36-1.23,4.39-8,8.89-8.92,2.3-.49,3.35,1.05,6.19.22a9.65,9.65,0,0,0,4.57-3.23c25.41-29.53,55.45-67.53,35.53-46.85-4.77,4.94-44.29,33.85-47.64,37.66a25.37,25.37,0,0,0-2.16,2.84c-1.68,2.65-1.69,3.93-3,6.7s-2.67,5.81-5.38,7.1c-2.52,1.19-4.63.17-4.84.79C634.3,255.22,638.66,259,642.43,258Z"/><path class="cls-6" d="M645.42,255.79c1.78.93,5.22-2.93,9.49-2.4,2.56.32,2.77,1.9,6.77,2.81a22.88,22.88,0,0,0,4.15.45c6.48.15,92.18-18.82,57.3-13-8.6,1.43-52.43-1.49-58.27,1.19a47,47,0,0,0-5.34,2.86c-2.41,1.54-2.23,1.82-3.43,2.37-4,1.85-7.44-.59-9.85,1C644.42,252.25,644.11,255.11,645.42,255.79Z"/><path class="cls-7" d="M637.35,258.45c-2.42-.85-1-5.44-4.39-7.75-2.25-1.54-4-.26-7.28-2a12.61,12.61,0,0,1-4.19-3.77c-25.35-32.9-52.51-74.7-35.37-51.64,3.47,4.66,41.76,37.62,45.35,43.94,3.29,5.79,3.51,6.2,3.51,6.2,1.82,3.41,1.83,3.75,2.63,4.66,2.9,3.26,6.14,2.61,6.61,4.44C644.86,255,640,259.39,637.35,258.45Z"/><path class="cls-8" d="M268.66,766.74c2.74-4.19,7-10.45,12.47-17.82,7.31-9.78,13.21-16.59,14.25-17.81,16.32-19.11,15,22.94,35.64-37.42,1.22-3.58,272.93-394.1,285.07-399.11,8.14-3.36,28.51-12.47,33.86-14.25,29.18-9.73,93.27-17,92.65-21.38-.16-1.11-7.44.43-19.6,0-83.61-2.95-102.31,8.95-112.25,16-11.52,8.21-24,27.33-26.73,32.07-22.34,39.61-133.11,191.36-311.8,429.4h0Z"/><path class="cls-9" d="M370.62,168.17c2.38-4.91-1.27-10.33.75-19.88a29.1,29.1,0,0,1,2.39-6.9c6.16-13.65,6.8-139.32,3.2-90.51-.82,11-21.81,69.28-17.2,83.51A110.32,110.32,0,0,1,363,147.16c1,5.11,1.51,7.67,1.38,10.81-.34,8.17-4.3,11.65-3.18,13.59S368.38,172.81,370.62,168.17Z"/><path class="cls-10" d="M369,156c4-2.17,2.51-8.74,6.68-10.67,2.14-1,3.51.28,6.09-1.15a9.72,9.72,0,0,0,3.74-4.18c18.22-34.43,39.08-78.14,24.25-53.56-3.55,5.88-35.67,42.83-38.1,47.29a26.35,26.35,0,0,0-1.47,3.25c-1.06,3-.78,4.21-1.4,7.19s-1.31,6.26-3.67,8.12c-2.2,1.72-4.48,1.19-4.55,1.85C360.46,155.12,365.56,157.86,369,156Z"/><path class="cls-11" d="M371.43,153.2c1.95.51,4.44-4,8.72-4.45,2.57-.25,3.13,1.24,7.22,1.24a23.07,23.07,0,0,0,4.16-.48c6.34-1.29,85.7-38.81,53-25.4-8.07,3.31-51.45,10.19-56.55,14.1a48.1,48.1,0,0,0-4.57,4c-2,2-1.78,2.27-2.83,3.08-3.5,2.7-7.38,1.08-9.38,3.15C369.67,150,370,152.83,371.43,153.2Z"/><path class="cls-12" d="M364.15,157.59c-2.54-.29-2.17-5.09-6-6.59-2.53-1-3.93.63-7.55-.35a12.61,12.61,0,0,1-4.91-2.75c-32-26.45-67.78-61.18-45.95-42.5,4.41,3.77,49.06,27.42,54,32.78l4.8,5.27c2.53,2.92,2.61,3.25,3.6,4,3.54,2.54,6.56,1.19,7.43,2.87C370.7,152.51,367,157.91,364.15,157.59Z"/><path class="cls-13" d="M466.89,134.71c-.41-1.05-7.16,2.07-19.11,4.35C365.6,154.75,350,170.5,341.88,179.61c-9.41,10.56-17.38,32-18.94,37.2-12.81,43-85.27,211.38-203.7,476.65.45.44.9.87,1.34,1.33a45.53,45.53,0,0,1,8.52,12.62c3.37-7.14,6-12,6.52-13.06,11.67-22.26,19.71,19,26.44-44.39.4-3.76,178.66-444.84,189.39-452.43,7.19-5.08,25-18.48,29.84-21.41C407.58,160.16,468.47,138.86,466.89,134.71Z"/></g></g></svg>